<?xml version="1.0" standalone="no"?>
<!DOCTYPE svg PUBLIC "-//W3C//DTD SVG 1.1//EN" "http://www.w3.org/Graphics/SVG/1.1/DTD/svg11.dtd" >
<svg xmlns="http://www.w3.org/2000/svg">
<metadata>Generated by IcoMoon</metadata>
<defs>
<font id="icomoon" horiz-adv-x="1024">
<font-face units-per-em="1024" ascent="960" descent="-64" />
<missing-glyph horiz-adv-x="1024" />
<glyph unicode="&#x20;" horiz-adv-x="512" d="" />
<glyph unicode="&#xe900;" d="M108.8 100.8l-82.4 477.6c-15.2 84 39.2 164 121.6 183.2l656 148.8c107.2 24 206.4-64.8 194.4-173.6l-70.4-626.4c-8.8-80.8-77.6-142.4-159.2-142.4h-502.4c-77.6 0-144 56-157.6 132.8z" />
<glyph unicode="&#xe901;" d="M480 623.2c-15.2 21.6-40 31.2-63.2 28-9.6-22.4-22.4-43.2-40-60.8l-16.8-17.6c-36-37.6-56-126.4-56-177.6v-355.2c0-35.2-24.8-64-58.4-70.4 4-0.8 8.8-1.6 12.8-1.6h333.6c36.8 0 66.4 29.6 66.4 66.4v333.6l-178.4 255.2z" />
<glyph unicode="&#xe902;" d="M480 623.2c-15.2 21.6-40 31.2-63.2 28-9.6-22.4-22.4-43.2-40-60.8l-16.8-17.6c-36-37.6-56-126.4-56-177.6v-355.2c0-35.2-24.8-64-58.4-70.4 4-0.8 8.8-1.6 12.8-1.6h333.6c36.8 0 66.4 29.6 66.4 66.4v333.6l-178.4 255.2z" />
<glyph unicode="&#xe903;" d="M506.4 584.8h252c18.4 0 33.6-15.2 33.6-33.6v0c0-18.4-15.2-33.6-33.6-33.6h-204.8z" />
<glyph unicode="&#xe904;" d="M813.6 623.2c-26.4 37.6-82.4 37.6-109.6 0l-26.4-38.4h80c17.6 0 32.8-12.8 34.4-30.4 1.6-20-13.6-36.8-32.8-36.8h-128l-39.2-54.4 66.4-95.2v-333.6c0-36.8-29.6-66.4-66.4-66.4v0h332.8c36.8 0 66.4 29.6 66.4 66.4v333.6l-177.6 255.2z" />
<glyph unicode="&#xe905;" d="M925.6 34.4h-267.2c0-36.8-29.6-66.4-66.4-66.4h332.8c36.8 0 66.4 29.6 66.4 66.4v66.4c0.8-36-28.8-66.4-65.6-66.4z" />
<glyph unicode="&#xe906;" d="M813.6 623.2c-26.4 37.6-82.4 37.6-109.6 0l-26.4-38.4h81.6c18.4 0 33.6-15.2 33.6-33.6s-15.2-33.6-33.6-33.6h-128l-39.2-54.4 66.4-95.2h333.6l-178.4 255.2z" />
<glyph unicode="&#xe907;" d="M668.8 375.2l-179.2 255.2c-15.2 21.6-38.4 33.6-64.8 33.6-1.6 0-2.4 0-4 0-3.2-8.8-6.4-17.6-11.2-25.6 4.8 1.6 9.6 2.4 15.2 2.4 18.4 0 34.4-8.8 44.8-23.2l176.8-252v-329.6c0-30.4-24.8-54.4-54.4-54.4h-320c-11.2-8-24.8-12-40-12-6.4 0-12.8 0.8-18.4 2.4 12.8-8.8 28.8-14.4 45.6-14.4h332.8c43.2 0 78.4 35.2 78.4 78.4v332c0 2.4-0.8 4.8-1.6 7.2z" />
<glyph unicode="&#xe908;" d="M592 451.2c-2.4 0-4.8 0.8-7.2 2.4-5.6 4-6.4 11.2-3.2 16.8l35.2 50.4c4 5.6 11.2 6.4 16.8 3.2 5.6-4 6.4-11.2 3.2-16.8l-35.2-51.2c-2.4-3.2-5.6-4.8-9.6-4.8z" />
<glyph unicode="&#xe909;" d="M925.6-44h-327.2c-6.4 0-12 5.6-12 12s5.6 12 12 12h326.4c30.4 0 54.4 24.8 54.4 54.4v329.6l-176.8 252c-10.4 15.2-26.4 23.2-44.8 23.2v0c-18.4 0-34.4-8.8-44.8-23.2l-26.4-38.4c-4-5.6-11.2 1.6-16.8 4.8-5.6 4-6.4 3.2-3.2 8.8l26.4 38.4c15.2 21.6 38.4 33.6 64.8 33.6v0c26.4 0 49.6-12 64.8-33.6l178.4-255.2c1.6-2.4 2.4-4.8 2.4-7.2v-333.6c0.8-42.4-34.4-77.6-77.6-77.6z" />
<glyph unicode="&#xe90a;" d="M992 356h-333.6c-6.4 0-12 5.6-12 12s5.6 12 12 12h333.6c6.4 0 12-5.6 12-12s-5.6-12-12-12z" />
<glyph unicode="&#xe90b;" d="M758.4 506.4h-204.8c-6.4 0-12 5.6-12 12s5.6 12 12 12h205.6c12 0 21.6 9.6 21.6 21.6s-9.6 21.6-21.6 21.6h-252.8c-6.4 0-12 5.6-12 12s5.6 12 12 12h252c24.8 0 45.6-20 45.6-45.6s-20-45.6-45.6-45.6z" />
<glyph unicode="&#xe90c;" d="M459.2 552c0-18.557-15.043-33.6-33.6-33.6s-33.6 15.043-33.6 33.6c0 18.557 15.043 33.6 33.6 33.6s33.6-15.043 33.6-33.6z" />
<glyph unicode="&#xe90d;" d="M425.6 596.8c-24.8 0-45.6-20-45.6-45.6s20-45.6 45.6-45.6 45.6 20 45.6 45.6-20.8 45.6-45.6 45.6zM425.6 530.4c-12 0-21.6 9.6-21.6 21.6s9.6 21.6 21.6 21.6 21.6-9.6 21.6-21.6-10.4-21.6-21.6-21.6z" />
<glyph unicode="&#xe90e;" d="M480 623.2c-15.2 21.6-40 31.2-63.2 28-9.6-22.4-22.4-43.2-40-60.8l-16.8-17.6c-36-37.6-56-126.4-56-177.6v-355.2c0-35.2-24.8-64-58.4-70.4 4-0.8 8.8-1.6 12.8-1.6h107.2c11.2 21.6 18.4 45.6 18.4 72v355.2c0 44 19.2 107.2 32.8 122.4l16.8 17.6c22.4 23.2 40 49.6 52.8 78.4l-6.4 9.6z" />
<glyph unicode="&#xe90f;" d="M232 24c-8.8 0-16 7.2-16 16s7.2 16 16 16 16-7.2 16-16-7.2-16-16-16z" />
<glyph unicode="&#xe910;" d="M332 900.8h-8v-172.8c-52.8-45.6-131.2-45.6-184 0v172.8h-8c-60-34.4-100-98.4-100-172.8 0-51.2 20-100.8 55.2-137.6l16.8-17.6c35.2-36.8 55.2-126.4 55.2-177.6v0-355.2c0-40 32-72 72-72s72 32 72 72v355.2c0 51.2 20 140.8 55.2 177.6l16.8 17.6c36.8 36.8 56.8 86.4 56.8 137.6v0c0 74.4-40 138.4-100 172.8zM232 24c-8.8 0-16 7.2-16 16s7.2 16 16 16 16-7.2 16-16-7.2-16-16-16z" />
<glyph unicode="&#xe911;" d="M320.8 496.8c9.6 30.4 22.4 59.2 39.2 76l8.8 8.8c-36.8-33.6-84-53.6-136.8-53.6s-100 20-136 53.6l8.8-8.8c16.8-16.8 29.6-45.6 39.2-76 27.2-11.2 56.8-16.8 88-16.8s60.8 5.6 88.8 16.8z" />
<glyph unicode="&#xe912;" d="M200 152v280c0 17.6 14.4 32 32 32v0c17.6 0 32-14.4 32-32v-280c0-17.6-14.4-32-32-32v0c-17.6 0-32 14.4-32 32z" />
<glyph unicode="&#xe913;" d="M232 12c-15.2 0-28 12.8-28 28s12.8 28 28 28 28-12.8 28-28-12.8-28-28-28zM232 44c-2.4 0-4-1.6-4-4s1.6-4 4-4 4 1.6 4 4-1.6 4-4 4z" />
<glyph unicode="&#xe914;" d="M432 716c-6.4 0-12 5.6-12 12v0c0 6.4 5.6 12 12 12s12-5.6 12-12-5.6-12-12-12z" />
<glyph unicode="&#xe915;" d="M232-44c-46.4 0-84 37.6-84 84v355.2c0 47.2-18.4 134.4-52 169.6l-16.8 17.6c-38.4 39.2-59.2 91.2-59.2 145.6 0 6.4 5.6 12 12 12s0-5.6 0-12c0-48.8 30.4-94.4 64-129.6l16.8-17.6c38.4-40 58.4-133.6 58.4-186.4v-354.4c0-32.8 27.2-60 60-60s60 27.2 60 60v355.2c0 52 20.8 146.4 58.4 186.4l16.8 17.6c33.6 35.2 60.8 75.2 60.8 123.2 0 6.4-4 17.6 3.2 17.6v0c6.4 0 12-5.6 12-12 0-54.4-20.8-106.4-58.4-145.6l-16-18.4c-33.6-35.2-52-122.4-52-169.6v-354.4c0-46.4-37.6-84-84-84z" />
<glyph unicode="&#xe916;" d="M338.4 911.2c-1.6 0.8-4 1.6-6.4 1.6h-8c-6.4 0-12-5.6-12-12v-167.2c-46.4-36.8-113.6-36.8-160 0v167.2c0 6.4-5.6 12-12 12h-8c-2.4 0-4-0.8-6.4-1.6-64.8-37.6-105.6-108-105.6-183.2 0-116.8 95.2-212 212-212s212 95.2 212 212c0 75.2-40.8 145.6-105.6 183.2zM232 540c-104 0-188 84-188 188 0 63.2 32 121.6 84 156.8v-156.8c0-3.2 1.6-6.4 4-8.8 28.8-24.8 64-36.8 100-36.8s71.2 12 100 36.8c2.4 2.4 4 5.6 4 8.8v156.8c52-34.4 84-93.6 84-156.8 0-104-84-188-188-188z" />
<glyph unicode="&#xe917;" glyph-name="arrow_left" d="M21 427c-5.6 0-11 2.2-15.2 6.4-8 8.4-7.8 21.8 0.6 29.8l411.6 397.6c8.4 8 21.8 7.8 29.8-0.6s7.8-21.8-0.6-29.8l-411.4-397.6c-4.2-4-9.4-5.8-14.8-5.8zM432.6 29.2c-5.2 0-10.6 2-14.6 6l-411.6 397.6c-6.2 6-8.2 15.2-4.8 23 3.2 8 11 13.2 19.6 13.2h981.8c11.6 0 21-9.4 21-21s-9.4-21-21-21h-929.8l374-361.4c8.4-8 8.6-21.4 0.6-29.8-4.2-4.4-9.6-6.6-15.2-6.6z" />
<glyph unicode="&#xe918;" glyph-name="basics-22" d="M794.624 743.936l-286.72-287.744-287.744 287.744-19.456-19.456 286.72-287.744-286.72-287.744 19.456-19.456 287.744 287.744 286.72-287.744 20.48 19.456-287.744 287.744 287.744 287.744z" />
<glyph unicode="&#xe919;" glyph-name="heart-outline" d="M941.219 842.078c-50.652 50.118-123.649 82.247-200.447 82.247-45.214 0-87.697-10.342-128.542-31.050-40.858-20.694-74.079-49.012-100.224-84.965-26.144 35.953-59.368 64.27-100.223 84.966-40.857 20.706-83.34 31.050-128.542 31.050-76.798 0-149.783-32.131-200.447-82.247-50.653-50.108-82.794-123.094-82.794-199.903 0-52.825 11.224-104.105 25.053-142.707 6.867-19.138 17.244-39.88 31.048-61.006 13.968-21.369 26.691-39.217 37.579-53.369 10.899-14.167 26.424-31.873 47.387-52.292 20.974-20.438 38.126-36.496 50.652-47.931 12.526-11.448 31.584-28.343 56.649-50.118 28.853-25.065 49.432-43.726 62.644-55.556 12.932-11.585 31.595-29.409 56.101-52.837 49.571-47.372 85.942-91.030 120.373-141.068 6.425-9.343 14.711-13.618 24.506-13.618 10.354 0 19.312 4.183 25.599 13.618 22.045 33.060 47.526 66.874 77.345 100.223 30.096 33.65 55.149 59.762 75.171 78.436 20.289 18.919 49.455 45.318 87.151 78.971 23.31 20.823 41.936 36.496 54.475 47.931 12.526 11.445 28.865 27.238 49.025 47.386 20.151 20.161 36.080 37.487 47.387 51.756 11.574 14.596 23.798 32.248 37.579 53.372 28.155 43.146 40.484 77.308 50.652 125.276 5.065 23.937 7.623 48.48 7.623 73.531 0.012 76.811-32.129 149.797-82.781 199.903zM958.649 586.622c-10.493-60.437-42.065-119.711-94.775-178.113-23.007-25.483-65.234-66.050-126.916-120.92-32.002-28.472-57.728-51.756-77.89-70.269-19.603-17.987-43.715-42.344-72.439-72.984-28.47-30.362-53.382-60.459-74.626-89.87-22.334 28.863-48.072 58.148-77.343 88.242-29.551 30.362-52.29 53.372-69.174 68.629-16.884 15.245-42.61 37.987-77.89 69.174l-37.579 33.222-34.314 31.050c-14.862 13.444-26.296 24.379-33.769 32.676-7.227 8.040-16.883 18.523-28.863 31.595s-21.195 24.539-27.238 33.769c-12.479 19.091-33.699 47.583-41.39 71.358l-12.527 38.672c-9.132 28.19-11.98 57.194-11.98 89.323 0 61.006 21.787 113.296 65.363 156.326 44.121 43.574 96.413 65.363 157.952 65.363 43.029 0 82.793-11.433 119.292-34.86 36.498-23.413 64.63-54.289 82.793-93.135 5.264-11.271 14.165-16.884 26.691-16.884s22.205 5.229 27.784 16.884c18.394 38.474 44.667 69.721 81.155 93.135 36.488 23.427 76.796 34.86 119.826 34.86 61.551 0 113.843-21.787 157.418-64.817s65.361-95.32 65.361-156.871c-0.018-19.056-1.795-37.555-4.921-55.554z" />
<glyph unicode="&#xe91a;" glyph-name="cart" d="M1014.902 819.048c-7.535 9.092-18.729 13.868-30.537 13.868h-800.093v82.272c0 21.903-17.012 38.975-38.914 38.975h-105.7c-21.901-0.001-39.657-18.013-39.657-39.916s17.757-39.916 39.657-39.916h65.384v-781.054c0-0.288 0.367-0.565 0.372-0.851-0.054-1.655 0.040-3.307 0.040-4.975 0-80.505 65.579-145.993 146.083-145.993 66.759 0 123.235 44.526 140.562 106.35h205.216c17.327-61.824 73.723-106.35 140.482-106.35 80.505 0 146 65.491 146 145.995s-65.495 145.964-146 145.964c-66.759 0-123.153-46.955-140.482-106.378h-205.215c-17.327 59.423-74.094 106.376-140.85 106.376-23.985 0-45.368-5.817-66.977-16.109v78.942c6.002-1.104 12.581-2.943 18.727-2.943h636.099c50.947 0 94.23 36.064 107.707 88.822 0.208 0.808 0.388 1.934 0.542 2.755l75.981 401.58c2.197 11.604-0.894 23.493-8.427 32.586zM737.796 154.134c36.769 0 66.685-29.914 66.685-66.684s-29.916-66.684-66.685-66.684-66.685 29.913-66.685 66.684c0 36.769 29.916 66.684 66.685 66.684zM251.618 154.134c36.769 0 66.683-29.914 66.683-66.684s-29.914-66.684-66.683-66.684c-36.77 0-66.687 29.913-66.687 66.684 0.001 36.769 29.916 66.684 66.687 66.684zM869.686 400.55c-2.142-7.639-9.725-27.415-30.588-27.415h-636.099c-10.085 0-18.727 8.938-18.727 19.425v361.123h752.228l-66.815-353.134z" />
<glyph unicode="&#xe91b;" d="M165.356 647.238h580.219v-580.215h-580.219v580.215z" />
<glyph unicode="&#xe91c;" d="M209.035 681.728h580.217v-580.215h-580.217v580.215z" />
<glyph unicode="&#xe91d;" d="M394.658 509.235l116.541-125.172 260.358 421.001 113.019-69.894-306.485-495.587-4.684-6.509-4.848-5.331-4.952-4.418-5.016-3.668-5.050-3.031-5.061-2.468-5.052-1.966-5.040-1.505-5.011-1.079-4.973-0.678-3.545-0.254-4.438-0.047-4.583 0.26-4.719 0.604-4.852 0.987-4.977 1.413-5.093 1.896-5.192 2.447-5.27 3.088-5.323 3.842-5.341 4.764-5.319 5.642-172.349 185.113z" />
<glyph unicode="&#xe91f;" glyph-name="check-mark" d="M709.952 623.36l-260.224-260.224-135.68 135.712-45.248-45.248 180.928-180.96 305.472 305.472z" />
<glyph unicode="&#xe920;" glyph-name="close" d="M664.576 275.968c-5.12 0-10.24 2.048-14.336 6.144l-305.152 303.104c-8.192 8.192-8.192 20.48 0 28.672s20.48 8.192 28.672 0l305.152-304.128c8.192-8.192 8.192-20.48 0-28.672-4.096-3.072-9.216-5.12-14.336-5.12zM359.424 275.968c-5.12 0-10.24 2.048-14.336 6.144-8.192 8.192-8.192 20.48 0 28.672l305.152 304.128c8.192 8.192 20.48 8.192 28.672 0s8.192-20.48 0-28.672l-305.152-305.152c-4.096-3.072-9.216-5.12-14.336-5.12z" />
<glyph unicode="&#xe921;" glyph-name="comment-outline-stroke" d="M85.438 874.667h853.123c24.022 0 42.772-19.245 42.772-42.986v-554.028c0-23.832-19.15-42.986-42.772-42.986h-469.228l-122.294-139.75c-15.489-17.7-40.798-17.88-56.177 0l-120.196 139.75h-85.378c-23.735 0-42.622 19.245-42.622 42.986v554.028c0 23.832 19.15 42.986 42.772 42.986zM85.333 832v-554.667h107.359l126.109-151.969 138.187 151.969h481.677v554.667h-853.333z" />
<glyph unicode="&#xe922;" glyph-name="comment-outline-stroke_2" d="M85.438 874.667h853.123c24.022 0 42.772-19.245 42.772-42.986v-554.028c0-23.832-19.15-42.986-42.772-42.986h-469.228l-122.294-139.75c-15.489-17.7-40.798-17.88-56.177 0l-120.196 139.75h-85.378c-23.735 0-42.622 19.245-42.622 42.986v554.028c0 23.832 19.15 42.986 42.772 42.986zM85.333 832v-554.667h107.359l126.109-151.969 138.187 151.969h481.677v554.667h-853.333z" />
<glyph unicode="&#xe923;" glyph-name="down" d="M512 172.8c-5.6 0-11 2.2-15.2 6.4l-490.8 508.2c-8 8.4-7.8 21.8 0.6 29.8s21.8 7.8 29.8-0.6l491-508c8-8.4 7.8-21.8-0.6-29.8-4.2-4-9.6-6-14.8-6zM512 172.8c-5.2 0-10.6 2-14.6 6-8.4 8-8.6 21.4-0.6 29.8l491 508c8 8.4 21.4 8.6 29.8 0.6s8.6-21.4 0.6-29.8l-491-508c-4.2-4.4-9.6-6.6-15.2-6.6z" />
<glyph unicode="&#xe924;" glyph-name="Facebook" d="M512-64c-282.77 0-512 229.23-512 512s229.23 512 512 512c282.77 0 512-229.23 512-512s-229.23-512-512-512zM512-2.56c248.837 0 450.56 201.723 450.56 450.56s-201.723 450.56-450.56 450.56c-248.837 0-450.56-201.723-450.56-450.56s201.723-450.56 450.56-450.56zM549.161 222.72v225.306h66.647l8.832 77.642h-75.479l0.113 38.86c0 20.25 2.062 31.101 33.229 31.101h41.665v77.651h-66.656c-80.065 0-108.245-37.665-108.245-101.005v-46.616h-49.907v-77.642h49.907v-225.298h99.894z" />
<glyph unicode="&#xe925;" glyph-name="Filter" d="M248.2 662.8v0c-5.6 0-10 4.4-10 10v146c0 5.6 4.4 10 10 10v0c5.6 0 10-4.4 10-10v-146c0-5.4-4.6-10-10-10zM248.2 66.8v0c-5.6 0-10 4.4-10 10v114.4c0 5.6 4.4 10 10 10v0c5.6 0 10-4.4 10-10v-114.4c0-5.4-4.6-10-10-10zM248.2 138.2v0c-5.6 0-10 4.4-10 10v241.2c0 5.6 4.4 10 10 10v0c5.6 0 10-4.4 10-10v-241.2c0-5.6-4.6-10-10-10zM775.8 662.8v0c-5.6 0-10 4.4-10 10v146c0 5.6 4.4 10 10 10v0c5.6 0 10-4.4 10-10v-146c0-5.4-4.6-10-10-10zM775.8 66.8v0c-5.6 0-10 4.4-10 10v114.4c0 5.6 4.4 10 10 10v0c5.6 0 10-4.4 10-10v-114.4c0-5.4-4.6-10-10-10zM775.8 175.6v0c-5.6 0-10 4.4-10 10v203.8c0 5.6 4.4 10 10 10v0c5.6 0 10-4.4 10-10v-203.8c0-5.4-4.6-10-10-10zM512 66.8v0c-5.6 0-10 4.4-10 10v146c0 5.6 4.4 10 10 10v0c5.6 0 10-4.4 10-10v-146c0-5.4-4.4-10-10-10zM512 476.4v0c-5.6 0-10 4.4-10 10v197c0 5.6 4.4 10 10 10v0c5.6 0 10-4.4 10-10v-197c0-5.6-4.4-10-10-10zM512 670v0c-5.6 0-10 4.4-10 10v139.2c0 5.6 4.4 10 10 10v0c5.6 0 10-4.4 10-10v-139.2c0-5.4-4.4-10-10-10z" />
<glyph unicode="&#xe926;" glyph-name="finance-11" d="M981.333 661.333h-328.533l192 192c17.067 17.067 17.067 46.933 0 64l-34.133 29.867c-17.067 17.067-46.933 17.067-64 0l-234.667-234.667-234.667 234.667c-17.067 17.067-46.933 17.067-64 0l-29.867-34.133c-17.067-17.067-17.067-46.933 0-64l192-187.733h-332.8c-25.6 0-42.667-17.067-42.667-42.667l85.333-640c0-25.6 17.067-42.667 42.667-42.667h768c25.6 0 42.667 17.067 42.667 42.667l85.333 640c0 25.6-17.067 42.667-42.667 42.667zM469.333 618.667c0 25.6 17.067 42.667 42.667 42.667s42.667-17.067 42.667-42.667-17.067-42.667-42.667-42.667-42.667 17.067-42.667 42.667zM776.533 913.067l34.133-29.867-221.867-221.867h-4.267c-8.533 12.8-17.067 21.333-29.867 29.867l221.867 221.867zM217.6 883.2l29.867 29.867 221.867-221.867c-12.8-8.533-25.6-17.067-29.867-29.867v0l-221.867 221.867zM853.333 21.333h-682.667l-64 426.667h814.933l-68.267-426.667zM925.867 490.667h-827.733l-12.8 85.333h354.133c12.8-25.6 42.667-42.667 72.533-42.667s59.733 17.067 72.533 42.667h354.133l-12.8-85.333z" />
<glyph unicode="&#xe927;" glyph-name="finance-11_2" d="M981.333 661.333h-328.533l192 192c17.067 17.067 17.067 46.933 0 64l-34.133 29.867c-17.067 17.067-46.933 17.067-64 0l-234.667-234.667-234.667 234.667c-17.067 17.067-46.933 17.067-64 0l-29.867-34.133c-17.067-17.067-17.067-46.933 0-64l192-187.733h-332.8c-25.6 0-42.667-17.067-42.667-42.667l85.333-640c0-25.6 17.067-42.667 42.667-42.667h768c25.6 0 42.667 17.067 42.667 42.667l85.333 640c0 25.6-17.067 42.667-42.667 42.667zM469.333 618.667c0 25.6 17.067 42.667 42.667 42.667s42.667-17.067 42.667-42.667-17.067-42.667-42.667-42.667-42.667 17.067-42.667 42.667zM776.533 913.067l34.133-29.867-221.867-221.867h-4.267c-8.533 12.8-17.067 21.333-29.867 29.867l221.867 221.867zM217.6 883.2l29.867 29.867 221.867-221.867c-12.8-8.533-25.6-17.067-29.867-29.867v0l-221.867 221.867zM853.333 21.333h-682.667l-64 426.667h814.933l-68.267-426.667zM925.867 490.667h-827.733l-12.8 85.333h354.133c12.8-25.6 42.667-42.667 72.533-42.667s59.733 17.067 72.533 42.667h354.133l-12.8-85.333z" />
<glyph unicode="&#xe928;" glyph-name="Google" d="M512 960c282.77 0 512-229.23 512-512s-229.23-512-512-512c-282.77 0-512 229.23-512 512s229.23 512 512 512zM512 898.56c-248.837 0-450.56-201.723-450.56-450.56s201.723-450.56 450.56-450.56c248.837 0 450.56 201.723 450.56 450.56s-201.723 450.56-450.56 450.56zM783.257 507.192h97.383c-4.351 15.382-9.576 30.399-15.615 44.993h-81.768v107.153h-45.902v-107.153h-107.104v-44.993h107.104v-108.102h45.902v108.102zM240.139 196.592c59.681 36.533 140.060 41.358 183.527 44.115-13.454 17.233-28.978 35.499-28.978 65.484 0 16.199 4.83 25.849 9.659 37.222-10.694-1.034-21.044-2.068-30.703-2.068-101.768 0-159.379 75.823-159.379 150.613 0 44.115 20.354 93.125 61.406 128.59 54.851 45.046 120.052 52.732 171.798 52.732h197.671l-61.406-34.5h-59.336c22.078-18.232 67.96-56.592 67.96-129.589 0-70.998-40.362-104.43-80.379-136.138-12.764-12.407-26.908-25.849-26.908-46.873s14.144-32.742 24.838-41.358l34.498-26.883c42.432-35.155 80.724-67.896 80.724-134.070 0-43.639-20.384-87.439-60.101-121.052-21.37-3.481-43.292-5.318-65.632-5.378 40.329 17.674 61.222 50.012 61.222 88.863 0 48.941-31.393 74.789-104.528 126.832-7.589 0.689-12.419 0.689-22.078 0.689-8.624 0-60.371-1.723-100.733-15.165-21.044-7.582-82.449-30.674-82.449-98.915 0-7.416 0.79-14.606 2.332-21.531-101.148 74.963-57.331 64.383-68.846 64.383 11.515 19.345 29.369 38.365 55.819 53.995zM387.099 641.641c-24.838 0-51.746-12.476-67.27-31.674-16.214-20.128-21.044-45.977-21.044-70.792 0-64.45 37.257-170.947 120.052-170.947 23.803 0 49.677 11.718 65.2 26.883 22.078 22.058 23.803 52.732 23.803 69.964 0 69.275-41.052 176.565-120.742 176.565z" />
<glyph unicode="&#xe929;" glyph-name="photo-camera" d="M905.641 43.47h-787.3c-65.264 0-118.341 53.077-118.341 118.341v479.933c0 65.264 53.077 118.341 118.341 118.341h160.649l14.062 47.436c5.739 25.957 29.468 45.009 57.377 45.009h323.148c27.12 0 51.122-18.954 57.475-45.245l0.374-1.617 12.819-45.58h161.416c65.264 0 118.341-53.077 118.341-118.341v-479.93c-0.018-65.27-53.114-118.347-118.359-118.347zM118.341 720.637c-43.511 0-78.893-35.385-78.893-78.893v-479.93c0-43.511 35.385-78.893 78.893-78.893h787.3c43.511 0 78.893 35.385 78.893 78.893v479.93c0 43.511-35.385 78.893-78.893 78.893h-191.277l-21.596 77.021c-1.992 8.955-10.060 15.443-19.211 15.443h-323.151c-9.29 0-17.18-6.35-19.211-15.464l-22.799-76.999h-190.055zM512.021 162.701c-138.043 0-250.35 112.286-250.35 250.31 0 138.043 112.304 250.329 250.35 250.329 138.006 0 250.292-112.304 250.292-250.329-0.003-138.006-112.289-250.31-250.292-250.31zM512.021 623.913c-116.291 0-210.902-94.593-210.902-210.884s94.615-210.862 210.902-210.862c116.269 0 210.844 94.593 210.844 210.862-0.003 116.291-94.596 210.884-210.844 210.884zM880.178 647.424c-20.117 0-36.391-16.311-36.391-36.391 0-20.098 16.271-36.388 36.391-36.388 20.098 0 36.37 16.293 36.37 36.388-0.018 20.080-16.293 36.391-36.37 36.391z" />
<glyph unicode="&#xe92a;" glyph-name="Intsagram" d="M512 960c282.77 0 512-229.23 512-512s-229.23-512-512-512c-282.77 0-512 229.23-512 512s229.23 512 512 512zM512 898.56c-248.837 0-450.56-201.723-450.56-450.56s201.723-450.56 450.56-450.56c248.837 0 450.56 201.723 450.56 450.56s-201.723 450.56-450.56 450.56zM736.283 253.242c-3.596-19.349-18.63-35.395-37.028-39.478-2.316-0.525-4.664-0.868-7.006-1.285h-360.498c-0.959 0.161-1.923 0.356-2.882 0.477-19.82 2.663-36.481 18.481-40.895 38.886-0.515 2.381-0.843 4.795-1.254 7.189v377.915c0.148 0.881 0.322 1.755 0.437 2.636 2.843 21.144 17.614 37.951 37.575 42.706 2.149 0.511 4.342 0.82 6.523 1.231h361.489c0.836-0.155 1.666-0.35 2.515-0.464 20.45-2.926 37.105-19.308 41.049-40.419 0.386-2.058 0.656-4.129 0.971-6.194v-376.886c-0.328-2.098-0.611-4.223-0.997-6.315zM335.469 282.134c0-10.027 8.305-18.649 17.897-18.649 105.733-0.007 211.459-0.007 317.191 0 9.682 0 17.942 8.608 17.942 18.71 0.006 69.627 0 139.247 0 208.868v1.446h-43.011c6.073-20.29 7.938-40.93 5.558-61.967-2.393-21.043-8.878-40.628-19.44-58.712-10.569-18.105-24.272-33.102-41.049-45.039-43.487-30.963-100.741-33.687-146.884-6.611-23.326 13.673-41.641 32.739-54.41 57.306-19.048 36.66-22.091 75.135-10.917 115.056-14.268-0.013-28.479-0.013-42.882-0.013v-1.271c0-69.708-0.006-139.415 0.006-209.123zM509.906 352.602c51.014-1.143 92.275 41.468 93.349 93.293 1.1 53.446-40.135 97.591-91.252 97.557-49.971 0.034-90.596-41.999-91.297-94.006-0.72-53.406 40.174-95.741 89.2-96.844zM688.492 581.497c0.006 14.87 0.006 29.746 0 44.616 0 10.666-8.073 19.154-18.263 19.16-14.185 0.007-28.369 0.013-42.561 0-10.164-0.013-18.263-8.521-18.27-19.187-0.006-14.742-0.045-29.484 0.051-44.232 0.013-2.199 0.412-4.486 1.081-6.571 2.547-7.848 9.424-12.664 17.845-12.704 6.845-0.013 13.689 0.007 20.541 0.007 7.411 0.087 14.847-0.061 22.265 0.128 9.54 0.249 17.311 8.797 17.311 18.784z" />
<glyph unicode="&#xe92b;" glyph-name="left" d="M258 427c5.2 0 10.6 2 14.6 6l508 491c8.4 8 8.6 21.4 0.6 29.8s-21.4 8.6-29.8 0.6l-508-491c-8.4-8-8.6-21.4-0.6-29.8 4.2-4.6 9.6-6.6 15.2-6.6zM766-64c5.6 0 11 2.2 15.2 6.4 8 8.4 7.8 21.8-0.6 29.8l-508 491c-8.4 8-21.8 7.8-29.8-0.6s-7.8-21.8 0.6-29.8l508-491c4-3.8 9.4-5.8 14.6-5.8z" />
<glyph unicode="&#xe92c;" glyph-name="Mobile" d="M573.4 843.8h-123c-5.6 0-10.2 4.6-10.2 10.2v0c0 5.6 4.6 10.2 10.2 10.2h123c5.6 0 10.2-4.6 10.2-10.2v0c0-5.6-4.6-10.2-10.2-10.2z" />
<glyph unicode="&#xe92d;" glyph-name="multimedia-11" d="M977.067 960h-930.133c-25.6 0-46.933-21.333-46.933-46.933v-930.133c0-25.6 21.333-46.933 46.933-46.933h930.133c25.6 0 46.933 21.333 46.933 46.933v930.133c0 25.6-21.333 46.933-46.933 46.933zM938.667 21.333h-853.333v853.333h853.333v-853.333zM384 405.333c72.533 0 128 55.467 128 128s-55.467 128-128 128-128-55.467-128-128 55.467-128 128-128zM384 618.667c46.933 0 85.333-38.4 85.333-85.333s-38.4-85.333-85.333-85.333-85.333 38.4-85.333 85.333 38.4 85.333 85.333 85.333zM896 832h-768v-768h768v768zM853.333 106.667h-448l277.333 277.333 170.667-170.667v-106.667zM853.333 277.333l-170.667 170.667-341.333-341.333h-170.667v682.667h682.667v-512z" />
<glyph unicode="&#xe92e;" glyph-name="multimedia-39" d="M128 106.667h426.667v512h-426.667v-512zM170.667 576h341.333v-426.667h-341.333v426.667zM981.333 576h-298.667v128c0 25.6-21.333 42.667-42.667 42.667h-597.333c-25.6 0-42.667-17.067-42.667-42.667v-725.333c0-25.6 17.067-42.667 42.667-42.667h938.667c25.6 0 42.667 17.067 42.667 42.667v554.667c0 25.6-21.333 42.667-42.667 42.667zM85.333 661.333h512v-640h-512v640zM938.667 21.333h-256v42.667h256v-42.667zM938.667 106.667h-256v298.667h256v-298.667zM938.667 448h-256v42.667h256v-42.667z" />
<glyph unicode="&#xe92f;" glyph-name="office-71" d="M592 860h-160c-6.4 0-12 5.6-12 12s5.6 12 12 12h160c6.4 0 12-5.6 12-12s-5.6-12-12-12zM752 940h-480c-28.8 0-52-23.2-52-52v-880c0-28.8 23.2-52 52-52h480c28.8 0 52 23.2 52 52v880c0 28.8-23.2 52-52 52zM780 8c0-15.2-12.8-28-28-28h-480c-15.2 0-28 12.8-28 28v124h468c6.4 0 12 5.6 12 12s-5.6 12-12 12h-468v648h536v-796zM780 828h-536v60c0 15.2 12.8 28 28 28h480c15.2 0 28-12.8 28-28v-60zM512 4c-28.8 0-52 23.2-52 52s23.2 52 52 52 52-23.2 52-52-23.2-52-52-52zM512 84c-15.2 0-28-12.8-28-28s12.8-28 28-28 28 12.8 28 28-12.8 28-28 28z" />
<glyph unicode="&#xe930;" glyph-name="office-75" d="M964 412v76c0 249.6-202.4 452-452 452s-452-202.4-452-452v-76c-24.8-35.2-40-77.6-40-124 0-116.8 95.2-212 212-212h40c28.8 0 52 23.2 52 52v320c0 28.8-23.2 52-52 52h-40c-57.6 0-109.6-23.2-148-60.8v48.8c0 236 192 428 428 428s428-192 428-428v-48.8c-38.4 37.6-90.4 60.8-148 60.8h-40c-28.8 0-52-23.2-52-52v-320c0-28.8 23.2-52 52-52h40c116.8 0 212 95.2 212 212 0 46.4-15.2 88.8-40 124zM220 475.2v-307.2c0-6.4 5.6-12 12-12s12 5.6 12 12v308h28c15.2 0 28-12.8 28-28v-320c0-15.2-12.8-28-28-28h-40c-104 0-188 84-188 188 0 27.2 5.6 52.8 16 76v-76c0-6.4 5.6-12 12-12s12 5.6 12 12v116c32 40.8 80.8 68 136 71.2zM792 100h-40c-15.2 0-28 12.8-28 28v320c0 15.2 12.8 28 28 28h28v-308c0-6.4 5.6-12 12-12s12 5.6 12 12v307.2c55.2-3.2 104-31.2 136-72v-115.2c0-6.4 5.6-12 12-12s12 5.6 12 12v76c10.4-23.2 16-48.8 16-76 0-104-84-188-188-188z" />
<glyph unicode="&#xe931;" glyph-name="office-78" d="M156.8 304.8c-5.6 2.4-11.2 4.8-16.8 7.2 5.6-2.4 11.2-4.8 16.8-7.2zM68 372c2.4-3.2 4.8-6.4 7.2-9.6-2.4 3.2-4.8 6.4-7.2 9.6zM64.8 589.6c2.4 4 5.6 8 8.8 11.2-4-3.2-6.4-7.2-8.8-11.2zM61.6 382.4c-2.4 3.2-4 7.2-6.4 10.4 1.6-3.2 4-7.2 6.4-10.4zM56.8 576.8c2.4 4 4.8 8.8 8 12.8-3.2-4-5.6-8-8-12.8zM110.4 329.6c3.2-2.4 6.4-4.8 10.4-7.2-3.2 2.4-7.2 4.8-10.4 7.2zM126.4 648c-2.4-1.6-5.6-3.2-8-4.8 2.4 1.6 5.6 3.2 8 4.8zM113.6 640c-3.2-2.4-5.6-4-8.8-6.4 3.2 2.4 5.6 4 8.8 6.4zM72.8 601.6c2.4 3.2 5.6 7.2 8.8 10.4-3.2-4-5.6-7.2-8.8-10.4zM50.4 401.6c-2.4 5.6-4.8 11.2-7.2 16.8 2.4-5.6 4.8-12 7.2-16.8zM104.8 633.6c-6.4-4.8-12-9.6-17.6-15.2 5.6 4.8 12 10.4 17.6 15.2zM222.4 673.6c-35.2 0-67.2-9.6-96-25.6 28 16 60.8 25.6 96 25.6v0zM56.8 576.8c-2.4-4-4-7.2-5.6-11.2 1.6 4 3.2 8 5.6 11.2zM110.4 329.6c-3.2 2.4-6.4 4.8-9.6 7.2 3.2-2.4 6.4-4.8 9.6-7.2zM120.8 323.2c3.2-2.4 7.2-4 10.4-6.4-3.2 1.6-7.2 4-10.4 6.4zM118.4 643.2c-1.6-0.8-3.2-2.4-4.8-3.2 1.6 0.8 3.2 1.6 4.8 3.2zM61.6 382.4c2.4-3.2 4.8-7.2 7.2-10.4-3.2 3.2-5.6 7.2-7.2 10.4zM43.2 418.4c-3.2 8.8-5.6 17.6-8 27.2 2.4-9.6 4.8-18.4 8-27.2zM992 472h-85.6c-6.4 0-12 5.6-12 12s5.6 12 12 12h85.6c6.4 0 12-5.6 12-12s-5.6-12-12-12zM906.4 566.4c-3.2 0-7.2 1.6-9.6 4-4 4.8-3.2 12.8 1.6 16.8l56.8 47.2c4.8 4 12.8 3.2 16.8-1.6s3.2-12.8-1.6-16.8l-56.8-47.2c-1.6-0.8-4.8-2.4-7.2-2.4zM963.2 328.8c-2.4 0-5.6 0.8-8 2.4l-56.8 47.2c-4.8 4-5.6 12-1.6 16.8s12 5.6 16.8 1.6l56.8-47.2c4.8-4 5.6-12 1.6-16.8-1.6-2.4-4.8-4-8.8-4zM852 484c0 55.2-41.6 100-95.2 106.4v225.6c0 20-16 36-36 36-19.2 0-34.4-14.4-35.2-33.6 0-0.8 0-1.6 0-2.4 0-107.2-96.8-130.4-178.4-130.4 0 0 0 0 0 0h-284.8c-111.2 0-202.4-90.4-202.4-202.4s90.4-202.4 202.4-202.4v0c16.8 0 30.4-13.6 30.4-30.4v-183.2c0-38.4 30.4-70.4 67.2-71.2h2.4c0 0 0 0 0 0 18.4 0 36 7.2 48.8 20s20 30.4 20 48.8v122.4c48.8 5.6 88 44.8 93.6 94.4h22.4c81.6 0 178.4-22.4 178.4-130.4 0-0.8 0-1.6 0-2.4 1.6-18.4 16.8-33.6 35.2-33.6 20 0 36 16 36 36v226.4c53.6 5.6 95.2 51.2 95.2 106.4zM366.4 251.2v-185.6c0-12-4.8-23.2-12.8-32-8.8-8.8-20-12.8-32-12.8h-1.6c-24 0.8-44 21.6-44 47.2v183.2c0 11.2-3.2 21.6-9.6 30.4h109.6c-6.4-8.8-9.6-19.2-9.6-30.4zM390.4 211.2v40c0 16.8 13.6 30.4 30.4 30.4h40c-5.6-36-34.4-64.8-70.4-70.4zM495.2 305.6h-74.4c0 0 0 0 0 0h-198.4c0 0 0 0 0 0-94.4 0-172 73.6-177.6 166.4h67.2c6.4 0 12 5.6 12 12s-5.6 12-12 12h-67.2c1.6 20 5.6 38.4 12.8 56h78.4c6.4 0 12 5.6 12 12s-5.6 12-12 12h-66.4c31.2 51.2 88 86.4 152.8 86.4h272.8v-356.8zM732.8 151.2c0-6.4-5.6-12-12-12s-12 5.6-12 12c0 96-67.2 150.4-190.4 153.6v356.8c80.8 2.4 137.6 26.4 167.2 69.6v-437.6c0-6.4 5.6-12 12-12s12 5.6 12 12v522.4c0 6.4 5.6 12 12 12s12-5.6 12-12v-664.8zM756.8 401.6v164c40-5.6 71.2-40.8 71.2-82.4s-31.2-76-71.2-81.6z" />
<glyph unicode="&#xe932;" glyph-name="office-87" d="M93.6 517.6c-0.8 0-1.6 0-2.4 0-6.4 1.6-10.4 7.2-9.6 14.4l0.8 3.2c1.6 6.4 8 10.4 14.4 9.6 6.4-1.6 10.4-8 9.6-14.4l-0.8-2.4c-0.8-6.4-5.6-10.4-12-10.4zM760.8 872c-0.8 0-2.4 1.6-3.2 1.6-72 41.6-156 66.4-245.6 66.4-88 0-171.2-23.2-243.2-64-0.8 0-0.8-0.8-1.6-0.8s-0.8-0.8-1.6-0.8c-146.4-85.6-245.6-244.8-245.6-426.4 0-271.2 220.8-492 492-492 89.6 0 173.6 24 246.4 66.4 0.8 0 0.8 0 1.6 0.8 0.8 0 0.8 0.8 1.6 0.8 145.6 85.6 243.2 244 243.2 424s-98.4 338.4-244 424zM980 460.8h-189.6c-4 92.8-53.6 174.4-127.2 222.4l94.4 164c130.4-81.6 217.6-224 222.4-386.4zM256.8 452c2.4 139.2 116 251.2 255.2 251.2 140.8 0 255.2-114.4 255.2-255.2s-114.4-255.2-255.2-255.2c-140 0-254.4 113.6-255.2 253.6 0 0.8 0 1.6 0 3.2 0.8 0.8 0 1.6 0 2.4zM512 916c81.6 0 158.4-20.8 224.8-57.6l-94.4-164c-39.2 20.8-83.2 32.8-130.4 32.8-45.6 0-89.6-11.2-127.2-31.2l-95.2 164c66.4 36 142.4 56 222.4 56zM268.8 848l15.2-26.4c-75.2-45.6-134.4-112.8-171.2-193.6-2.4-6.4 0-12.8 6.4-16 1.6-0.8 3.2-0.8 4.8-0.8 4.8 0 8.8 2.4 11.2 7.2 34.4 76 90.4 139.2 161.6 183.2l67.2-116.8c-75.2-47.2-125.6-128.8-130.4-223.2h-189.6c4.8 163.2 93.6 306.4 224.8 386.4zM44 437.6h188.8c3.2-94.4 54.4-176.8 128.8-224.8l-94.4-164c-130.4 80.8-219.2 224.8-223.2 388.8zM512-20c-80.8 0-156.8 20.8-223.2 56.8l94.4 164c38.4-20 82.4-32 128.8-32 47.2 0 91.2 12 130.4 32.8l94.4-164c-66.4-36.8-143.2-57.6-224.8-57.6zM757.6 49.6l-94.4 164c73.6 48 124 129.6 128 223.2h188.8c-4-163.2-92-306.4-222.4-387.2z" />
<glyph unicode="&#xe933;" glyph-name="office-87_2" d="M93.6 517.6c-0.8 0-1.6 0-2.4 0-6.4 1.6-10.4 7.2-9.6 14.4l0.8 3.2c1.6 6.4 8 10.4 14.4 9.6 6.4-1.6 10.4-8 9.6-14.4l-0.8-2.4c-0.8-6.4-5.6-10.4-12-10.4zM760.8 872c-0.8 0-2.4 1.6-3.2 1.6-72 41.6-156 66.4-245.6 66.4-88 0-171.2-23.2-243.2-64-0.8 0-0.8-0.8-1.6-0.8s-0.8-0.8-1.6-0.8c-146.4-85.6-245.6-244.8-245.6-426.4 0-271.2 220.8-492 492-492 89.6 0 173.6 24 246.4 66.4 0.8 0 0.8 0 1.6 0.8 0.8 0 0.8 0.8 1.6 0.8 145.6 85.6 243.2 244 243.2 424s-98.4 338.4-244 424zM980 460.8h-189.6c-4 92.8-53.6 174.4-127.2 222.4l94.4 164c130.4-81.6 217.6-224 222.4-386.4zM256.8 452c2.4 139.2 116 251.2 255.2 251.2 140.8 0 255.2-114.4 255.2-255.2s-114.4-255.2-255.2-255.2c-140 0-254.4 113.6-255.2 253.6 0 0.8 0 1.6 0 3.2 0.8 0.8 0 1.6 0 2.4zM512 916c81.6 0 158.4-20.8 224.8-57.6l-94.4-164c-39.2 20.8-83.2 32.8-130.4 32.8-45.6 0-89.6-11.2-127.2-31.2l-95.2 164c66.4 36 142.4 56 222.4 56zM268.8 848l15.2-26.4c-75.2-45.6-134.4-112.8-171.2-193.6-2.4-6.4 0-12.8 6.4-16 1.6-0.8 3.2-0.8 4.8-0.8 4.8 0 8.8 2.4 11.2 7.2 34.4 76 90.4 139.2 161.6 183.2l67.2-116.8c-75.2-47.2-125.6-128.8-130.4-223.2h-189.6c4.8 163.2 93.6 306.4 224.8 386.4zM44 437.6h188.8c3.2-94.4 54.4-176.8 128.8-224.8l-94.4-164c-130.4 80.8-219.2 224.8-223.2 388.8zM512-20c-80.8 0-156.8 20.8-223.2 56.8l94.4 164c38.4-20 82.4-32 128.8-32 47.2 0 91.2 12 130.4 32.8l94.4-164c-66.4-36.8-143.2-57.6-224.8-57.6zM757.6 49.6l-94.4 164c73.6 48 124 129.6 128 223.2h188.8c-4-163.2-92-306.4-222.4-387.2z" />
<glyph unicode="&#xe934;" d="M294.459 569.559h345.11c58.409 0 105.759-44.306 105.759-98.961v-322.931c0-54.655-47.35-98.963-105.759-98.963h-345.11c-58.409 0-105.759 44.308-105.759 98.963v322.931c0 54.655 47.35 98.961 105.759 98.961z" />
<glyph unicode="&#xe935;" d="M402.072 645.952h126.169v-680.585h-126.169v680.585z" />
<glyph unicode="&#xe936;" d="M515.873 611.228l207.233-200.669-81.344 13.84-1.21-77.353-167.973 232.352z" />
<glyph unicode="&#xe937;" d="M287.955 427.723l1.21-77.353 167.973 232.352-43.293 31.83" />
<glyph unicode="&#xe938;" d="M464.695 619.352c13.695 36.164 48.153 90.411 82.17 112.747 34.019 22.338 67.596 12.763 91.451-1.065 23.855-13.826 37.992-31.91 43.737-51.585 5.743-19.679 3.092-40.952-8.393-56.906-11.489-15.956-31.808-26.593-62.292-35.101-30.484-8.511-71.127-14.893-97.192-21.273-26.067-6.384-37.552-12.765-46.83-6.914-9.277 5.849-16.345 23.931-2.65 60.097z" />
<glyph unicode="&#xe939;" d="M475.838 560.767c11.627 18.328 23.257 36.657 42.039 54.983 18.786 18.33 44.726 36.659 67.981 45.82 23.255 9.165 43.829 9.165 58.141 9.165s22.362 0 26.389-6.875c4.024-6.873 4.024-20.619 4.024-34.367" />
<glyph unicode="&#xe93a;" d="M639.568 569.559h-175.026c3.594 9.824 3.504 25.723-5.437 49.33-13.695 36.164-48.153 90.413-82.172 112.749-34.017 22.336-67.592 12.763-91.449-1.063-23.857-13.828-37.994-31.91-43.737-51.589-5.743-19.677-3.093-40.95 8.393-56.906s31.808-26.591 62.292-35.101c24.379-6.803 55.235-12.249 79.956-17.42h-97.931c-58.409 0-105.759-44.306-105.759-98.961v-322.931c0-54.655 47.35-98.963 105.759-98.963h345.11c58.409 0 105.759 44.308 105.759 98.963v322.931c0 54.655-47.352 98.961-105.759 98.961z" />
<glyph unicode="&#xe93b;" d="M449.231 629.989h31.808v-79.774h-31.808v79.774z" />
<glyph unicode="&#xe93c;" d="M342.256 648.182h376.013c63.64 0 115.229-48.275 115.229-107.825v-351.851c0-59.55-51.587-107.825-115.229-107.825h-376.013c-63.64 0-115.231 48.275-115.231 107.825v351.851c0 59.55 51.591 107.825 115.231 107.825z" />
<glyph unicode="&#xe93d;" d="M493.996 731.177h65.116v-748.804h-65.116v748.804z" />
<glyph unicode="&#xe93e;" d="M342.256 648.182h376.013c63.64 0 115.229-48.275 115.229-107.825v-351.851c0-59.55-51.587-107.825-115.229-107.825h-376.013c-63.64 0-115.231 48.275-115.231 107.825v351.851c0 59.55 51.591 107.825 115.231 107.825z" />
<glyph unicode="&#xe93f;" d="M583.498 693.58l225.79-218.64-88.625 15.081-1.321-84.281-183.015 253.159z" />
<glyph unicode="&#xe940;" d="M472.334 697.201l-225.788-218.638 88.625 15.079 1.319-84.281 183.013 253.161z" />
<glyph unicode="&#xe941;" d="M527.737 702.431c14.922 39.403 52.468 98.509 89.532 122.847 37.061 24.338 73.646 13.906 99.637-1.161s41.398-34.769 47.653-56.209c6.259-21.44 3.371-44.618-9.146-62.003-12.515-17.385-34.656-28.973-67.869-38.244-33.214-9.273-77.496-16.226-105.896-23.179-28.398-6.955-40.913-13.906-51.022-7.531s-17.811 26.075-2.888 65.479z" />
<glyph unicode="&#xe942;" d="M539.879 638.601c12.669 19.968 25.338 39.94 45.803 59.908s48.73 39.938 74.068 49.922c25.34 9.986 47.757 9.986 63.351 9.986 15.593 0 24.363 0 28.748-7.488s4.385-22.465 4.385-37.442" />
<glyph unicode="&#xe943;" d="M521.65 701.927c-14.922 39.404-52.468 98.509-89.532 122.847-37.063 24.336-73.646 13.904-99.639-1.161-25.993-15.067-41.396-34.769-47.655-56.209-6.257-21.44-3.369-44.618 9.146-62.003 12.517-17.385 34.658-28.973 67.871-38.244 33.214-9.273 77.498-16.226 105.896-23.179 28.4-6.953 40.915-13.908 51.024-7.531 10.107 6.375 17.811 26.077 2.888 65.479z" />
<glyph unicode="&#xe944;" d="M509.508 638.097c-12.669 19.97-25.338 39.938-45.804 59.908-20.466 19.968-48.73 39.938-74.070 49.922-25.338 9.984-47.755 9.984-63.347 9.984s-24.365 0-27.529-10.197c-3.166-10.197-0.723-30.589 1.72-50.983" />
<glyph unicode="&#xe945;" d="M510.89 714.019h34.658v-86.919h-34.658v86.919z" />
<glyph unicode="&#xe946;" d="M233.517 374.841h594.768v-64.291h-594.768v64.291z" />
<glyph unicode="&#xe947;" glyph-name="Radio" d="M224.6 447.6h-63c-9.4 0-17 7.6-17 17v0c0 9.4 7.6 17 17 17h63c9.4 0 17-7.6 17-17v0c0-9.4-7.6-17-17-17zM276.6 367.6h-117c-9.4 0-17 7.6-17 17v0c0 9.4 7.6 17 17 17h117c9.4 0 17-7.6 17-17v0c0-9.4-7.6-17-17-17zM343.6 287.6h-180c-9.4 0-17 7.6-17 17v0c0 9.4 7.6 17 17 17h180c9.4 0 17-7.6 17-17v0c0-9.4-7.6-17-17-17z" />
<glyph unicode="&#xe948;" d="M361.6 651.2c-20.8-3.2-40-11.2-59.2-20.8-86.4 20.8-190.4-6.4-201.6-32-9.6-20.8 35.2-64 65.6-89.6-14.4-27.2-24-56-28.8-88-30.4-3.2-72-12.8-78.4-38.4-11.2-43.2 0-144 56-155.2 24-4.8 51.2-4.8 73.6-4.8 20.8-25.6 46.4-44.8 75.2-64l-25.6-110.4h164.8l22.4 59.2c12.8-1.6 25.6-3.2 38.4-3.2 20.8 0 43.2 4.8 64 8l-16-64h156.8c0 0 123.2 161.6 140.8 249.6 11.2 27.2 20.8 56 19.2 86.4-3.2 62.4-84.8 334.4-467.2 267.2z" />
<glyph unicode="&#xe949;" d="M561.6 862.4c-83.2 0-150.4-67.2-150.4-150.4 0-54.4 28.8-100.8 70.4-128 33.6 0 75.2-3.2 112-19.2 68.8 14.4 120 75.2 120 147.2-1.6 83.2-68.8 150.4-152 150.4z" />
<glyph unicode="&#xe94a;" d="M787.2 515.2c-17.6 24-38.4 46.4-64 67.2" />
<glyph unicode="&#xe94b;" d="M427.2 640c-11.2 20.8-17.6 44.8-17.6 68.8 0 83.2 67.2 150.4 150.4 150.4s150.4-67.2 150.4-150.4c0-44.8-19.2-83.2-49.6-112" />
<glyph unicode="&#xe94c;" d="M616 756.8c0 0-4.8 24-54.4 24-38.4 0-54.4-20.8-54.4-40s22.4-32 54.4-32c43.2 0 54.4-14.4 54.4-32 0-24-25.6-40-54.4-40s-51.2 16-54.4 24" />
<glyph unicode="&#xe94d;" d="M560 800v-176" />
<glyph unicode="&#xe94e;" d="M272 435.2c0-8.837-7.163-16-16-16s-16 7.163-16 16c0 8.837 7.163 16 16 16s16-7.163 16-16z" />
<glyph unicode="&#xe94f;" d="M361.6 651.2c-20.8-4.8-40-11.2-59.2-20.8-86.4 20.8-190.4-6.4-201.6-32-9.6-20.8 35.2-64 65.6-89.6-14.4-27.2-24-56-28.8-88-30.4-3.2-72-12.8-78.4-38.4-11.2-43.2 0-144 56-155.2 24-4.8 51.2-4.8 73.6-4.8 20.8-25.6 46.4-44.8 75.2-64l-25.6-110.4h164.8l22.4 59.2c12.8-1.6 25.6-3.2 38.4-3.2 20.8 0 43.2 4.8 64 8l-16-64h156.8c0 0 123.2 161.6 140.8 249.6 11.2 27.2 19.2 56 19.2 86.4" />
<glyph unicode="&#xe950;" d="M793.6 444.8c0 0 110.4-6.4 104 72-4.8 57.6-33.6 68.8-52.8 44.8-16-20.8 0-78.4 67.2-75.2s48 88 48 88" />
<glyph unicode="&#xe951;" d="M424 579.2c0 0 128 24 200-33.6" />
<glyph unicode="&#xe952;" glyph-name="right" d="M766 427c-5.2 0-10.6 2-14.6 6l-508 491c-8.4 8-8.6 21.4-0.6 29.8s21.4 8.6 29.8 0.6l508-491c8.4-8 8.6-21.4 0.6-29.8-4.2-4.6-9.6-6.6-15.2-6.6zM258-64c-5.6 0-11 2.2-15.2 6.4-8 8.4-7.8 21.8 0.6 29.8l508 491c8.4 8 21.8 7.8 29.8-0.6s7.8-21.8-0.6-29.8l-508-490.8c-4-4-9.4-6-14.6-6z" />
<glyph unicode="&#xe953;" glyph-name="shopping-bag" horiz-adv-x="824" d="M613.711-63.668h-404.067c-88.592 0-151.255 56.18-153.416 131.808l-54.020 583.413c0 2.161 0 2.161 0 4.322 0 32.412 25.929 58.341 62.663 58.341h697.935c32.412 0 60.502-28.090 60.502-62.663 0-2.161 0-2.161 0-4.322l-54.020-576.931c-4.322-75.628-69.145-133.969-155.577-133.969zM88.64 627.785l51.859-553.162c0-2.161 0-2.161 0-4.322 0-32.412 34.573-47.537 66.984-47.537h404.067c32.412 0 66.984 15.126 66.984 49.698 0 2.161 0 2.161 0 4.322l51.859 551.001c0 0-641.754 0-641.754 0zM592.104 627.785c-23.769 0-43.216 19.447-43.216 43.216v56.18c0 82.11-56.18 144.773-129.647 144.773s-129.647-62.663-129.647-144.773v-56.18c0-23.769-19.447-43.216-43.216-43.216s-43.216 19.447-43.216 43.216v56.18c0 129.647 95.075 231.204 216.079 231.204s216.079-101.557 216.079-231.204v-56.18c0-23.769-19.447-43.216-43.216-43.216z" />
<glyph unicode="&#xe954;" glyph-name="star" d="M512 190.878l301.349-181.736-79.726 342.747 265.996 230.498-350.647 30.086-136.972 323.145-136.972-323.145-350.647-30.086 265.996-230.498-79.726-342.747 301.349 181.736z" />
<glyph unicode="&#xe955;" glyph-name="star_2" d="M512 190.878l301.349-181.736-79.726 342.747 265.996 230.498-350.647 30.086-136.972 323.145-136.972-323.145-350.647-30.086 265.996-230.498-79.726-342.747 301.349 181.736z" />
<glyph unicode="&#xe956;" glyph-name="thefreeforty_location" d="M515.413 949.76c-204.8 0-341.333-136.533-341.333-334.507 0-266.24 245.76-597.333 310.613-662.187 3.413-3.413 10.24-6.827 17.067-6.827 0 0 0 0 0 0 6.827 0 13.653 3.413 17.067 10.24 34.133 37.547 327.68 378.88 327.68 658.773 3.413 232.107-163.84 334.507-331.093 334.507zM501.76 11.093c-78.507 92.16-276.48 378.88-276.48 604.16 0 174.080 112.64 283.307 290.133 283.307 129.707 0 283.307-75.093 283.307-283.307 0-201.387-177.493-467.627-296.96-604.16zM512 751.787c-75.093 0-136.533-61.44-136.533-136.533s61.44-136.533 136.533-136.533 136.533 61.44 136.533 136.533c0 75.093-61.44 136.533-136.533 136.533zM512 529.92c-47.787 0-85.333 37.547-85.333 85.333s37.547 85.333 85.333 85.333 85.333-37.547 85.333-85.333c0-47.787-37.547-85.333-85.333-85.333z" />
<glyph unicode="&#xe957;" glyph-name="thefreeforty_location_2" d="M515.413 949.76c-204.8 0-341.333-136.533-341.333-334.507 0-266.24 245.76-597.333 310.613-662.187 3.413-3.413 10.24-6.827 17.067-6.827 0 0 0 0 0 0 6.827 0 13.653 3.413 17.067 10.24 34.133 37.547 327.68 378.88 327.68 658.773 3.413 232.107-163.84 334.507-331.093 334.507zM501.76 11.093c-78.507 92.16-276.48 378.88-276.48 604.16 0 174.080 112.64 283.307 290.133 283.307 129.707 0 283.307-75.093 283.307-283.307 0-201.387-177.493-467.627-296.96-604.16zM512 751.787c-75.093 0-136.533-61.44-136.533-136.533s61.44-136.533 136.533-136.533 136.533 61.44 136.533 136.533c0 75.093-61.44 136.533-136.533 136.533zM512 529.92c-47.787 0-85.333 37.547-85.333 85.333s37.547 85.333 85.333 85.333 85.333-37.547 85.333-85.333c0-47.787-37.547-85.333-85.333-85.333z" />
<glyph unicode="&#xe958;" glyph-name="thefreeforty_message" d="M925.013 830.293h-826.027c-51.2 0-95.573-44.373-95.573-95.573v-570.027c0-51.2 44.373-95.573 95.573-95.573h822.613c51.2 0 95.573 44.373 95.573 95.573v570.027c3.413 51.2-40.96 95.573-92.16 95.573zM969.387 161.28c0-23.893-20.48-44.373-44.373-44.373h-826.027c-23.893 0-44.373 20.48-44.373 44.373v573.44c0 23.893 20.48 44.373 44.373 44.373h822.613c23.893 0 44.373-20.48 44.373-44.373v-573.44zM802.133 639.147l-286.72-269.653-286.72 269.653c-10.24 10.24-27.307 10.24-37.547 0s-10.24-27.307 0-37.547l170.667-160.427-129.707-129.707c-10.24-10.24-10.24-27.307 0-37.547 3.413-3.413 10.24-6.827 17.067-6.827s13.653 3.413 17.067 6.827l133.12 133.12c0 0 0 0 0 0l98.987-92.16c3.413-3.413 10.24-6.827 17.067-6.827s13.653 3.413 17.067 6.827l98.987 95.573c0 0 0-3.413 3.413-3.413l133.12-133.12c3.413-3.413 10.24-6.827 17.067-6.827s13.653 3.413 17.067 6.827c10.24 10.24 10.24 27.307 0 37.547l-133.12 133.12c0 0 0 0-3.413 0l167.253 157.013c10.24 10.24 10.24 27.307 0 37.547s-20.48 10.24-30.72 0z" />
<glyph unicode="&#xe959;" glyph-name="thefreeforty_phone" d="M979.627 611.84c-85.333 102.4-259.413 163.84-467.627 163.84 0 0 0 0 0 0v0c0 0 0 0 0 0-204.8 0-382.293-61.44-467.627-163.84-34.133-40.96-47.787-88.747-37.547-136.533 6.827-40.96 34.133-78.507 68.267-95.573 20.48-10.24 44.373-13.653 64.853-13.653 10.24 0 23.893 0 34.133 3.413-6.827-20.48-10.24-40.96-13.653-64.853-6.827-61.44 3.413-105.813 34.133-139.947 34.133-40.96 88.747-44.373 109.227-44.373 6.827 0 10.24 0 10.24 0h399.36c44.373 0 85.333 17.067 109.227 47.787 34.133 40.96 40.96 98.987 37.547 136.533-3.413 20.48-6.827 44.373-13.653 64.853 10.24-3.413 23.893-3.413 37.547-3.413 20.48 0 44.373 3.413 64.853 13.653 34.133 17.067 61.44 54.613 68.267 95.573 6.827 47.787-3.413 98.987-37.547 136.533zM785.067 202.24c-17.067-20.48-40.96-30.72-71.68-30.72h-402.773c-3.413 0-51.2-3.413-78.507 27.307-17.067 20.48-23.893 54.613-20.48 98.987 17.067 136.533 109.227 218.453 126.293 232.107 47.787 37.547 112.64 61.44 177.493 61.44s122.88-20.48 167.253-61.44c64.853-54.613 112.64-146.773 126.293-232.107 3.413-27.307 0-68.267-23.893-95.573zM965.973 485.547c-6.827-27.307-20.48-51.2-44.373-61.44-37.547-20.48-88.747-3.413-102.4 3.413-23.893 54.613-61.44 102.4-105.813 139.947-54.613 47.787-126.293 71.68-201.387 71.68s-150.187-27.307-208.213-71.68c-13.653-10.24-71.68-61.44-109.227-143.36-17.067-6.827-61.44-20.48-95.573 0-20.48 10.24-37.547 34.133-44.373 61.44-6.827 30.72 3.413 64.853 27.307 92.16 78.507 92.16 238.933 146.773 430.080 146.773s351.573-54.613 426.667-146.773c23.893-27.307 34.133-58.027 27.307-92.16zM512 536.747c-75.093 0-139.947-54.613-139.947-119.467s61.44-119.467 139.947-119.467c75.093 0 139.947 54.613 139.947 119.467s-64.853 119.467-139.947 119.467zM512 349.013c-47.787 0-88.747 30.72-88.747 68.267s37.547 68.267 88.747 68.267c47.787 0 88.747-30.72 88.747-68.267s-40.96-68.267-88.747-68.267z" />
<glyph unicode="&#xe95a;" glyph-name="Twitter" d="M512-64c-282.77 0-512 229.23-512 512s229.23 512 512 512c282.77 0 512-229.23 512-512s-229.23-512-512-512zM512-2.56c248.837 0 450.56 201.723 450.56 450.56s-201.723 450.56-450.56 450.56c-248.837 0-450.56-201.723-450.56-450.56s201.723-450.56 450.56-450.56zM505.493 539.048l0.977-16.831-16.278 2.061c-59.251 7.9-111.014 34.692-154.964 79.687l-21.487 22.326-5.534-16.487c-11.72-36.752-4.232-75.566 20.184-101.67 13.022-14.426 10.092-16.487-12.371-7.9-7.813 2.748-14.65 4.809-15.301 3.778-2.279-2.404 5.534-33.661 11.72-46.026 8.464-17.174 25.719-34.005 44.601-43.965l15.952-7.9-18.882-0.343c-18.231 0-18.882-0.343-16.929-7.557 6.511-22.326 32.23-46.026 60.879-56.331l20.184-7.213-17.58-10.991c-26.044-15.8-56.646-24.731-87.249-25.418-14.65-0.343-26.695-1.717-26.695-2.748 0-3.435 39.718-22.67 62.832-30.226 69.343-22.326 151.708-12.709 213.564 25.418 43.95 27.135 87.9 81.061 108.41 133.27 11.069 27.822 22.138 78.657 22.138 103.044 0 15.8 0.977 17.861 19.208 36.752 10.743 10.991 20.835 23.013 22.789 26.448 3.256 6.526 2.93 6.526-13.673 0.687-27.672-10.304-31.579-8.93-17.905 6.526 10.092 10.991 22.138 30.913 22.138 36.752 0 1.030-4.883-0.687-10.418-3.778-5.86-3.435-18.882-8.587-28.649-11.678l-17.58-5.839-15.952 11.335c-8.79 6.183-21.161 13.052-27.672 15.113-16.603 4.809-41.997 4.122-56.972-1.374-40.694-15.457-66.413-55.3-63.483-98.922 0 0-2.93 43.622 0 0z" />
<glyph unicode="&#xe95b;" glyph-name="twitter_online" d="M641.472 861.728c-92.48-33.664-150.912-120.448-144.288-215.424l2.24-36.64-36.992 4.48c-134.624 17.184-252.288 75.52-352.192 173.536l-48.832 48.608-12.576-35.904c-26.624-80.032-9.6-164.576 45.856-221.44 29.6-31.424 22.912-35.904-28.096-17.184-17.76 5.952-33.312 10.464-34.784 8.224-5.152-5.248 12.576-73.312 26.624-100.256 19.232-37.44 58.432-74.048 101.376-95.776l36.256-17.184-42.912-0.736c-41.408 0-42.912-0.736-38.464-16.48 14.784-48.608 73.248-100.256 138.336-122.688l45.856-15.68-39.936-23.936c-59.168-34.464-128.736-53.888-198.304-55.328-33.28-0.736-60.64-3.744-60.64-6.016 0-7.456 90.272-49.312 142.784-65.824 157.6-48.608 344.8-27.648 485.376 55.36 99.904 59.104 199.744 176.544 246.4 290.272 25.184 60.544 50.304 171.296 50.304 224.352 0 34.432 2.24 38.912 43.648 80.032 24.448 23.936 47.36 50.112 51.808 57.6 7.424 14.24 6.624 14.24-31.072 1.504-62.88-22.464-71.776-19.456-40.672 14.208 22.912 23.936 50.304 67.328 50.304 80.032 0 2.24-11.072-1.472-23.68-8.224-13.312-7.424-42.912-18.656-65.12-25.376l-39.936-12.736-36.256 24.704c-20 13.44-48.064 28.416-62.88 32.896-37.76 10.464-95.488 8.992-129.536-2.976z" />
<glyph unicode="&#xe95c;" glyph-name="umbrella" d="M1023.185 497.947c-44.438 211.433-248.852 365.323-489.858 374.092v76.687h-43.469v-76.687c-241.006-8.769-445.42-162.654-489.858-373.883 0-6.687 0.209-10.658 4.389-17.346s10.867-8.777 17.346-8.777h468.124v-433.224c0-26.123-26.123-47.857-56.635-47.857s-56.635 21.734-56.635 47.857v58.724h-43.469v-58.724c0-50.156 45.767-91.535 100.103-91.535s100.103 41.379 100.103 91.535v433.224h468.124c6.478 0 12.957 4.389 17.346 8.568s6.478 10.867 4.389 17.346zM50.156 515.502c52.246 182.861 241.794 313.476 461.645 313.476s409.19-130.615 461.436-313.476h-923.082z" />
<glyph unicode="&#xe95d;" glyph-name="user" horiz-adv-x="967" d="M474.866 388.578c-158.039 0-285.349 127.31-285.349 285.349s127.31 285.349 285.349 285.349 285.349-127.31 285.349-285.349-127.31-285.349-285.349-285.349zM474.866 871.477c-109.75 0-197.549-87.8-197.549-197.549s87.8-197.549 197.549-197.549 197.549 87.8 197.549 197.549-87.8 197.549-197.549 197.549zM896.305-63.59h-831.902c-43.9 0-63.655 48.29-63.655 81.215v144.869c0 173.404 212.914 307.299 482.898 307.299s482.898-133.895 482.898-307.299v-144.869c0-26.34-24.145-81.215-70.24-81.215zM88.547 24.21h790.197v138.285c0 118.53-179.989 219.499-395.099 219.499s-395.099-100.97-395.099-219.499v-138.285z" />
<glyph unicode="&#xe95e;" glyph-name="magnifying-glass" d="M1015.031-11.778l-248.848 248.848c66.753 76.743 107.168 176.873 107.168 286.311 0 240.901-195.945 436.619-436.619 436.619-240.901 0-436.619-195.945-436.619-436.619s195.945-436.619 436.619-436.619c109.439 0 209.568 40.415 286.311 107.168l248.848-248.848c5.903-5.903 13.85-9.082 21.57-9.082s15.667 2.952 21.57 9.082c11.807 11.807 11.807 31.333 0 43.14zM61.19 523.381c0 207.071 168.472 375.315 375.315 375.315 207.071 0 375.315-168.472 375.315-375.315s-168.245-375.542-375.315-375.542c-206.843 0-375.315 168.472-375.315 375.542z" />
<glyph unicode="&#xe95f;" glyph-name="shopping-bag2" d="M921.6 74.837l-58.634 660.26c-1.256 14.658-13.611 25.757-28.061 25.757h-120.618c-1.675 110.148-91.72 199.146-202.287 199.146s-200.612-88.998-202.287-199.146h-120.618c-14.658 0-26.804-11.099-28.061-25.757l-58.634-660.26c0-0.838-0.209-1.675-0.209-2.513 0-75.177 68.895-136.324 153.705-136.324h512.209c84.81 0 153.705 61.147 153.705 136.324 0 0.838 0 1.675-0.209 2.513zM512 903.46c79.365 0 144.072-63.66 145.747-142.606h-291.494c1.675 78.946 66.382 142.606 145.747 142.606zM768.105-7.46h-512.209c-53.189 0-96.327 35.18-97.165 78.528l56.121 633.037h94.652v-85.857c0-15.706 12.564-28.27 28.27-28.27s28.27 12.564 28.27 28.27v85.857h291.704v-85.857c0-15.706 12.564-28.27 28.27-28.27s28.27 12.564 28.27 28.27v85.857h94.652l56.33-633.037c-0.838-43.347-44.185-78.528-97.165-78.528z" />
<glyph unicode="&#xe960;" glyph-name="cancel" d="M581.458 448l428.205 428.205c19.181 19.181 19.181 50.277 0 69.458s-50.277 19.181-69.458 0l-428.205-428.205-428.205 428.14c-19.181 19.181-50.277 19.181-69.458 0s-19.181-50.277 0-69.458l428.205-428.205-428.14-428.14c-19.181-19.181-19.181-50.277 0-69.458 9.623-9.558 22.127-14.402 34.696-14.402s25.138 4.779 34.696 14.402l428.205 428.205 428.205-428.205c9.623-9.558 22.127-14.402 34.696-14.402s25.138 4.779 34.696 14.402c19.181 19.181 19.181 50.277 0 69.458l-428.14 428.205z" />
<glyph unicode="&#xe961;" glyph-name="cross-out" d="M1023.977 928.087l-31.863 31.913-480.114-480.082-480.082 480.082-31.895-31.913 480.082-480.078-480.082-480.082 31.895-31.927 480.082 480.146 480.114-480.146 31.863 31.927-480.082 480.082z" />
<glyph unicode="&#xe962;" glyph-name="back" d="M1008.311 432.327h-992.623c-8.66 0-15.689 7.029-15.689 15.689s7.029 15.689 15.689 15.689h992.623c8.66 0 15.689-7.029 15.689-15.689s-7.029-15.689-15.689-15.689zM409.067 38.98c-4.016 0-8.033 1.537-11.108 4.581l-393.378 393.409c-2.918 2.949-4.581 6.934-4.581 11.108s1.663 8.158 4.581 11.108l393.409 393.221c6.119 6.119 16.065 6.119 22.184 0s6.119-16.065 0-22.184l-382.302-382.145 382.302-382.302c6.119-6.119 6.119-16.065 0-22.184-3.075-3.075-7.091-4.612-11.108-4.612z" />
<glyph unicode="&#xe963;" glyph-name="umbrella2" d="M695.296 436.736h-387.072c-12.288 0-24.576 8.192-28.672 20.48l-1.024 3.072v3.072c-1.024 6.144-1.024 13.312-1.024 19.456 0 121.856 100.352 221.184 224.256 221.184s224.256-99.328 224.256-221.184c0-6.144 0-13.312-1.024-19.456v-3.072l-1.024-3.072c-5.12-12.288-16.384-20.48-28.672-20.48zM318.464 477.696h366.592c0 1.024 0 3.072 0 4.096 0 99.328-81.92 180.224-183.296 180.224s-183.296-80.896-183.296-180.224c0-1.024 0-2.048 0-4.096zM516.096 283.136c-11.264 0-20.48 9.216-20.48 20.48v143.36c0 11.264 9.216 20.48 20.48 20.48s20.48-9.216 20.48-20.48v-143.36c0-11.264-9.216-20.48-20.48-20.48zM447.488 212.48c-47.104 0-84.992 36.864-84.992 80.896 0 11.264 9.216 20.48 20.48 20.48s20.48-9.216 20.48-20.48c0-22.528 19.456-39.936 44.032-39.936s44.032 18.432 44.032 39.936c0 11.264 9.216 20.48 20.48 20.48s20.48-9.216 20.48-20.48c0-44.032-37.888-80.896-84.992-80.896z" />
<glyph unicode="&#xe964;" glyph-name="mail" d="M829.086 249.751c-4.061 0-8.123 1.486-11.293 4.491l-189.994 178.239c-6.637 6.208-6.967 16.675-0.726 23.312 6.241 6.703 16.642 7 23.345 0.726l189.994-178.239c6.637-6.208 6.967-16.675 0.726-23.312-3.269-3.467-7.627-5.217-12.052-5.217zM194.881 249.751c-4.392 0-8.783 1.75-12.052 5.217-6.241 6.637-5.91 17.104 0.726 23.312l190.060 178.239c6.67 6.208 17.137 5.944 23.345-0.726 6.241-6.637 5.91-17.104-0.726-23.312l-190.060-178.239c-3.17-3.005-7.231-4.491-11.293-4.491zM941.451 84.026h-858.903c-45.501 0-82.549 37.015-82.549 82.549v562.883c0 45.534 37.048 82.549 82.549 82.549h858.903c45.501 0 82.549-37.015 82.549-82.549v-562.883c0-45.534-37.048-82.549-82.549-82.549zM82.549 778.987c-27.307 0-49.529-22.222-49.529-49.529v-562.883c0-27.307 22.222-49.529 49.529-49.529h858.903c27.307 0 49.529 22.222 49.529 49.529v562.883c0 27.307-22.222 49.529-49.529 49.529h-858.903zM512 365.055c-21.958 0-43.916 7.297-60.624 21.859l-423.97 369.851c-6.868 5.977-7.594 16.411-1.618 23.312 6.043 6.868 16.444 7.495 23.312 1.585l423.97-369.818c21.099-18.392 56.76-18.392 77.827 0l423.442 369.224c6.835 5.977 17.236 5.316 23.312-1.585 5.977-6.901 5.283-17.302-1.585-23.312l-423.442-369.224c-16.741-14.595-38.666-21.892-60.624-21.892z" />
<glyph unicode="&#xe965;" glyph-name="telephone" d="M992 708.838v34.758c-0.022 61.102-49.25 116.758-109.868 124.082-245.6 27.644-494.66 27.646-740.394-0.016-60.488-7.31-109.716-62.966-109.738-124.072v-34.752c-18.622-6.604-32-24.39-32-45.248v-64c0-26.468 21.532-48 48-48h224c26.468 0 48 21.532 48 48v64c0 26.468-21.532 48-48 48v29.988c79.442 12.52 160.156 18.866 240.024 18.866 80.030 0 160.75-6.344 240.012-18.858-0.062-10.5-0.146-21.496-0.232-30-26.378-0.106-47.804-21.594-47.804-47.996v-64c0-26.468 21.532-48 48-48h224c26.468 0 48 21.532 48 48v64c0 20.858-13.378 38.644-32 45.248zM992 599.59c0-8.822-7.178-16-16-16h-224c-8.822 0-16 7.178-16 16v64c0 8.822 7.178 16 16 16h15.42c0.022 0 0.044-0.002 0.066-0.002s0.042 0.002 0.064 0.002h112.448c8.836 0 16 7.164 16 16s-7.164 16-16 16h-96.192c0.026 2.542 0.050 5.21 0.074 7.884 0.102 12.016 0.17 24.026 0.17 24.026 0 0.106 0 0.214-0.002 0.32-0.14 9.808-8.548 26.134-20.898 28.39-0.106 0.020-0.214 0.038-0.32 0.056-82.772 13.388-167.154 20.178-250.804 20.178-83.656 0-168.222-6.82-251.348-20.268-0.124-0.020-0.248-0.042-0.372-0.064-12.906-2.4-20.182-19.974-20.304-28.33 0-0.078-0.002-0.154-0.002-0.232v-31.96h-16.002c-8.836 0-16-7.164-16-16s7.164-16 16-16h48.002c8.822 0 16-7.178 16-16v-64c0-8.822-7.178-16-16-16h-224c-8.822 0-16 7.178-16 16v64c0 8.822 7.178 16 16 16h112.008c8.836 0 16 7.164 16 16s-7.164 16-16 16h-96.008v31.994c0.016 44.694 37.374 86.966 81.448 92.294 243.228 27.376 489.88 27.376 732.974 0.016 44.204-5.342 81.562-47.614 81.578-92.304v-32h-16.004c-8.836 0-16-7.164-16-16s7.164-16 16-16h32.004c8.822 0 16-7.178 16-16v-64zM872.974 447.936c-21.324 25.2-52.488 39.654-85.5 39.654h-51.474c-52.934 0-96 43.066-96 96v16c0 26.468-21.532 48-48 48h-160c-26.468 0-48-21.532-48-48v-16c0-52.934-43.066-96-96-96h-51.476c-33.012 0-64.174-14.454-85.5-39.654l-124.524-147.166c-17.088-20.196-26.5-45.888-26.5-72.346v-108.834c0-61.756 50.244-112 112-112h800c61.756 0 112 50.244 112 112v108.834c0 26.456-9.412 52.15-26.5 72.346l-124.526 147.166zM992 119.59c0-44.112-35.888-80-80-80h-800c-44.112 0-80 35.888-80 80v108.834c0 18.898 6.722 37.25 18.928 51.676l124.524 147.166c15.232 18 37.492 28.326 61.072 28.326h51.476c70.58 0 128 57.42 128 128v16c0 8.822 7.178 16 16 16h160c8.822 0 16-7.178 16-16v-16c0-70.58 57.42-128 128-128h51.476c23.58 0 45.838-10.324 61.072-28.324l124.524-147.166c12.206-14.426 18.928-32.778 18.928-51.674v-108.838zM512 487.59c-105.87 0-192-86.13-192-192s86.13-192 192-192 192 86.13 192 192-86.13 192-192 192zM512 135.59c-88.224 0-160 71.776-160 160s71.776 160 160 160 160-71.776 160-160-71.776-160-160-160zM606.364 358.032c-7.982-3.79-11.38-13.334-7.59-21.316 6.122-12.892 9.226-26.728 9.226-41.126 0-52.934-43.066-96-96-96s-96 43.066-96 96 43.066 96 96 96c19.748 0 38.71-5.946 54.84-17.194 7.246-5.052 17.22-3.276 22.276 3.972 5.054 7.248 3.276 17.222-3.972 22.276-21.524 15.010-46.818 22.946-73.144 22.946-70.58 0-128-57.42-128-128s57.42-128 128-128 128 57.42 128 128c0 19.184-4.144 37.638-12.32 54.852-3.79 7.984-13.332 11.38-21.316 7.59z" />
<glyph unicode="&#xe966;" glyph-name="controls" d="M146.286 208.823v714.606c0 10.112-8.192 18.286-18.286 18.286s-18.286-8.174-18.286-18.286v-714.606c-61.934-8.923-109.714-62.19-109.714-126.537 0-70.565 57.417-128 128-128s128 57.435 128 128c0 64.347-47.781 117.614-109.714 126.537zM128-9.143c-50.414 0-91.429 41.015-91.429 91.429s41.015 91.429 91.429 91.429 91.429-41.015 91.429-91.429-41.015-91.429-91.429-91.429zM530.286 581.577v341.851c0 10.112-8.192 18.286-18.286 18.286s-18.286-8.174-18.286-18.286v-340.699c-65.865-7.241-117.285-63.195-117.285-130.944s51.419-123.703 117.285-130.944v-348.27c0-10.112 8.192-18.286 18.286-18.286s18.286 8.174 18.286 18.286v349.422c62.171 10.551 109.714 64.658 109.714 129.792s-47.543 119.241-109.714 129.792zM508.215 356.571c-52.498 0-95.214 42.715-95.214 95.214s42.697 95.214 95.214 95.214 95.214-42.715 95.214-95.214-42.715-95.214-95.214-95.214zM1024 813.714c0 70.565-57.417 128-128 128s-128-57.435-128-128c0-64.347 47.781-117.614 109.714-126.537v-714.606c0-10.112 8.192-18.286 18.286-18.286s18.286 8.174 18.286 18.286v714.606c61.934 8.923 109.714 62.19 109.714 126.537zM896 722.286c-50.414 0-91.429 41.015-91.429 91.429s41.015 91.429 91.429 91.429 91.429-41.015 91.429-91.429-41.015-91.429-91.429-91.429z" />
<glyph unicode="&#xe967;" glyph-name="iphone" d="M461.142 891.734c-9.42 0-16.982-7.646-16.982-17.066s7.714-17.066 17.152-17.066 17.066 7.646 17.066 17.066c0 9.42-7.628 17.066-17.066 17.066h-0.17zM477.866 38.4c0-18.824 15.308-34.134 34.134-34.134 18.824 0 34.134 15.308 34.134 34.134 0 18.824-15.308 34.134-34.134 34.134-18.824 0-34.134-15.31-34.134-34.134zM256 174.934c9.42 0 17.066 7.646 17.066 17.066v682.666c0 24.884 26.316 51.2 51.2 51.2h375.466c24.884 0 51.2-26.316 51.2-51.2 0-9.42 7.646-17.066 17.066-17.066s17.066 7.646 17.066 17.066c0.002 43.862-41.47 85.334-85.33 85.334h-375.468c-43.862 0-85.334-41.472-85.334-85.334v-682.666c0.002-9.42 7.648-17.066 17.068-17.066zM529.066 891.734c-9.42 0-17.066-7.646-17.066-17.066s7.646-17.066 17.066-17.066h68.266c9.42 0 17.066 7.646 17.066 17.066s-7.646 17.066-17.066 17.066h-68.266zM665.6 652.8c4.37 0 8.738 1.672 12.066 5 6.674 6.674 6.674 17.46 0 24.132l-34.134 34.134c-6.674 6.672-17.46 6.672-24.132 0-6.672-6.674-6.672-17.46 0-24.132l34.134-34.134c3.328-3.328 7.696-5 12.066-5zM517 716.066c-6.672-6.674-6.672-17.46 0-24.132l136.534-136.534c3.328-3.328 7.698-5 12.066-5 4.37 0 8.738 1.672 12.066 5 6.674 6.674 6.674 17.46 0 24.132l-136.534 136.534c-6.672 6.674-17.458 6.674-24.132 0zM768 823.466h-443.734c-9.42 0-17.066-7.646-17.066-17.066s7.646-17.066 17.066-17.066h426.666v-768c0-24.884-26.316-51.2-51.2-51.2h-375.466c-24.884 0-51.2 26.316-51.2 51.2v85.334h426.666c9.42 0 17.066 7.646 17.066 17.066s-7.646 17.066-17.066 17.066h-443.732c-9.42 0-17.066-7.646-17.066-17.066v-102.4c0-43.862 41.472-85.334 85.334-85.334h375.466c43.862 0 85.334 41.472 85.334 85.334v785.066c-0.002 9.42-7.648 17.066-17.068 17.066z" />
<glyph unicode="&#xe968;" glyph-name="radio" d="M820.818 114.792h-162.534c-8.981 0-16.263-7.28-16.263-16.258 0-8.973 7.282-16.25 16.263-16.25h162.534c8.986 0 16.266 7.277 16.266 16.25 0 8.978-7.28 16.258-16.266 16.258zM813.713 586.155h-571.293l281.192 281.2c6.355-3.038 13.387-4.878 20.894-4.878 26.918 0 48.766 21.843 48.766 48.762 0 26.914-21.848 48.762-48.766 48.762-26.914 0-48.758-21.848-48.758-48.762 0-7.509 1.84-14.536 4.875-20.891l-304.917-304.933c-104.669-7.56-187.587-95.27-187.587-202.27v-244.125c0-111.949 90.696-203.019 202.168-203.019h603.426c111.474 0 202.168 91.070 202.168 203.019v244.125c0 111.941-90.694 203.011-202.168 203.011zM983.358 139.019c0-94.024-76.106-170.512-169.645-170.512h-603.426c-93.539 0-169.645 76.488-169.645 170.512v244.125c0 94.016 76.106 170.504 169.645 170.504h603.426c93.539 0 169.645-76.488 169.645-170.504v-244.125zM316.948 423.621c-98.582 0-178.797-80.206-178.797-178.794s80.214-178.8 178.797-178.8c98.586 0 178.8 80.211 178.8 178.8 0 98.587-80.214 178.794-178.8 178.794zM316.948 98.534c-80.669 0-146.277 65.626-146.277 146.293 0 80.661 65.608 146.286 146.277 146.286 80.667 0 146.277-65.626 146.277-146.286 0-80.667-65.61-146.293-146.277-146.293zM837.082 212.316c0-26.931-21.832-48.762-48.762-48.762s-48.762 21.832-48.762 48.762c0 26.931 21.832 48.762 48.762 48.762s48.762-21.832 48.762-48.762zM837.081 358.602c0-26.93-21.831-48.762-48.762-48.762s-48.762 21.831-48.762 48.762c0 26.93 21.831 48.762 48.762 48.762s48.762-21.831 48.762-48.762z" />
<glyph unicode="&#xe969;" glyph-name="user2" d="M512 483.84c-73.728 0-133.12 59.392-133.12 133.12s59.392 133.12 133.12 133.12c73.728 0 133.12-59.392 133.12-133.12s-59.392-133.12-133.12-133.12zM512 709.12c-51.2 0-92.16-40.96-92.16-92.16s40.96-92.16 92.16-92.16 92.16 40.96 92.16 92.16-40.96 92.16-92.16 92.16zM708.608 272.896h-388.096c-20.48 0-29.696 22.528-29.696 37.888v67.584c0 80.896 99.328 143.36 225.28 143.36s225.28-62.464 225.28-143.36v-67.584c0-12.288-11.264-37.888-32.768-37.888zM331.776 313.856h368.64v64.512c0 55.296-83.968 102.4-184.32 102.4s-184.32-47.104-184.32-102.4v-64.512z" />
<glyph unicode="&#xe96a;" glyph-name="camera" d="M512 342.528c-56.32 0-102.4 47.104-102.4 105.472s46.080 105.472 102.4 105.472 102.4-47.104 102.4-105.472-46.080-105.472-102.4-105.472zM512 512.512c-33.792 0-61.44-28.672-61.44-64.512s27.648-64.512 61.44-64.512c33.792 0 61.44 28.672 61.44 64.512s-27.648 64.512-61.44 64.512zM731.136 272.896h-430.080c-11.264 0-20.48 9.216-20.48 20.48v286.72c0 11.264 9.216 20.48 20.48 20.48h98.304l23.552 50.176c3.072 7.168 10.24 11.264 18.432 11.264h143.36c8.192 0 15.36-4.096 18.432-11.264l24.576-50.176h102.4c11.264 0 20.48-9.216 20.48-20.48v-286.72c1.024-11.264-8.192-20.48-19.456-20.48zM321.536 313.856h389.12v245.76h-94.208c-8.192 0-15.36 4.096-18.432 11.264l-24.576 50.176h-118.784l-21.504-45.056c-2.048-9.216-10.24-16.384-20.48-16.384v0c0 0-1.024 0-1.024 0h-91.136v-245.76z" />
<glyph unicode="&#xe96b;" glyph-name="shopping-bag3" d="M608.256 221.696h-191.488c-41.984 0-71.68 26.624-72.704 62.464l-25.6 276.48c0 1.024 0 1.024 0 2.048 0 15.36 12.288 27.648 29.696 27.648h330.752c15.36 0 28.672-13.312 28.672-29.696 0-1.024 0-1.024 0-2.048l-25.6-273.408c-2.048-35.84-32.768-63.488-73.728-63.488zM359.424 549.376l24.576-262.144c0-1.024 0-1.024 0-2.048 0-15.36 16.384-22.528 31.744-22.528h191.488c15.36 0 31.744 7.168 31.744 23.552 0 1.024 0 1.024 0 2.048l24.576 261.12h-304.128zM598.016 549.376c-11.264 0-20.48 9.216-20.48 20.48v26.624c0 38.912-26.624 68.608-61.44 68.608s-61.44-29.696-61.44-68.608v-26.624c0-11.264-9.216-20.48-20.48-20.48s-20.48 9.216-20.48 20.48v26.624c0 61.44 45.056 109.568 102.4 109.568s102.4-48.128 102.4-109.568v-26.624c0-11.264-9.216-20.48-20.48-20.48z" />
<glyph unicode="&#xe96c;" glyph-name="heart" d="M512 217.6c0 0 0 0 0 0-8.192 0-16.384 4.096-21.504 10.24l-175.104 208.896c0 0 0 0 0 0-13.312 16.384-21.504 35.84-25.6 56.32-2.048 8.192-2.048 17.408-2.048 25.6 0 70.656 55.296 129.024 123.904 129.024 40.96 0 78.848-21.504 101.376-55.296 22.528 33.792 60.416 55.296 101.376 55.296 68.608 0 123.904-57.344 123.904-129.024 0-9.216-1.024-17.408-2.048-25.6-4.096-20.48-13.312-39.936-25.6-56.32l-177.152-208.896c-5.12-6.144-13.312-10.24-21.504-10.24zM522.24 254.464v0c0 0 0 0 0 0zM347.136 462.336l164.864-196.608 164.864 196.608c8.192 10.24 14.336 23.552 17.408 37.888 1.024 6.144 2.048 12.288 2.048 18.432 0 48.128-36.864 88.064-82.944 88.064-36.864 0-69.632-25.6-79.872-62.464-2.048-9.216-10.24-14.336-19.456-14.336 0 0 0 0 0 0h-4.096c-9.216 0-17.408 6.144-19.456 14.336-10.24 36.864-43.008 62.464-79.872 62.464-46.080 0-82.944-38.912-82.944-88.064 0-6.144 1.024-12.288 2.048-18.432 2.048-13.312 8.192-26.624 17.408-37.888z" />
<glyph unicode="&#xe96d;" glyph-name="profile" d="M510.412 391.64c142.884 0 258.778 115.895 258.778 258.778s-115.895 257.984-258.778 257.984-258.778-115.895-258.778-257.984 115.895-258.778 258.778-258.778zM510.412 840.93c104.781 0 190.512-85.73 190.512-190.512s-85.73-190.512-190.512-190.512-190.512 85.73-190.512 190.512 85.73 190.512 190.512 190.512zM62.71-12.403h898.58c19.051 0 34.133 15.082 34.133 34.133 0 178.605-145.265 324.664-324.664 324.664h-317.519c-178.605 0-324.664-145.265-324.664-324.664 0-19.051 15.082-34.133 34.133-34.133zM353.24 278.127h317.519c130.183 0 237.346-96.843 254.016-222.264h-825.55c16.67 124.626 123.833 222.264 254.016 222.264z" />
<glyph unicode="&#xe96e;" glyph-name="next" d="M1008.311 432.327h-992.623c-8.66 0-15.689 7.029-15.689 15.689s7.029 15.689 15.689 15.689h992.623c8.66 0 15.689-7.029 15.689-15.689s-7.029-15.689-15.689-15.689zM614.933 38.98c-4.016 0-8.033 1.537-11.108 4.581-6.119 6.119-6.119 16.065 0 22.184l382.302 382.302-382.302 382.176c-6.119 6.119-6.119 16.065 0 22.184s16.065 6.119 22.184 0l393.378-393.252c2.949-2.949 4.581-6.934 4.581-11.108s-1.663-8.158-4.581-11.108l-393.378-393.347c-3.044-3.075-7.060-4.612-11.076-4.612z" />
<glyph unicode="&#xe96f;" glyph-name="play-button" d="M879.393 468.078l-707.064 487.631c-7.485 5.145-17.189 5.681-25.186 1.512-8.022-4.218-13.044-12.508-13.044-21.578v-975.261c0-9.070 5.023-17.384 13.044-21.602 3.56-1.853 7.461-2.779 11.337-2.779 4.852 0 9.679 1.463 13.849 4.316l707.064 487.631c6.607 4.559 10.533 12.044 10.533 20.066s-3.95 15.507-10.533 20.066zM182.861 6.804v882.392l639.747-441.208-639.747-441.184z" />
<glyph unicode="&#xe970;" glyph-name="Filter2" d="M248.2 662.8v0c-5.6 0-10 4.4-10 10v146c0 5.6 4.4 10 10 10v0c5.6 0 10-4.4 10-10v-146c0-5.4-4.6-10-10-10zM248.2 66.8v0c-5.6 0-10 4.4-10 10v114.4c0 5.6 4.4 10 10 10v0c5.6 0 10-4.4 10-10v-114.4c0-5.4-4.6-10-10-10zM248.2 138.2v0c-5.6 0-10 4.4-10 10v241.2c0 5.6 4.4 10 10 10v0c5.6 0 10-4.4 10-10v-241.2c0-5.6-4.6-10-10-10zM775.8 662.8v0c-5.6 0-10 4.4-10 10v146c0 5.6 4.4 10 10 10v0c5.6 0 10-4.4 10-10v-146c0-5.4-4.6-10-10-10zM775.8 66.8v0c-5.6 0-10 4.4-10 10v114.4c0 5.6 4.4 10 10 10v0c5.6 0 10-4.4 10-10v-114.4c0-5.4-4.6-10-10-10zM775.8 175.6v0c-5.6 0-10 4.4-10 10v203.8c0 5.6 4.4 10 10 10v0c5.6 0 10-4.4 10-10v-203.8c0-5.4-4.6-10-10-10zM512 66.8v0c-5.6 0-10 4.4-10 10v146c0 5.6 4.4 10 10 10v0c5.6 0 10-4.4 10-10v-146c0-5.4-4.4-10-10-10zM512 476.4v0c-5.6 0-10 4.4-10 10v197c0 5.6 4.4 10 10 10v0c5.6 0 10-4.4 10-10v-197c0-5.6-4.4-10-10-10zM512 670v0c-5.6 0-10 4.4-10 10v139.2c0 5.6 4.4 10 10 10v0c5.6 0 10-4.4 10-10v-139.2c0-5.4-4.4-10-10-10z" />
<glyph unicode="&#xe971;" glyph-name="Mobile2" d="M573.4 843.8h-123c-5.6 0-10.2 4.6-10.2 10.2v0c0 5.6 4.6 10.2 10.2 10.2h123c5.6 0 10.2-4.6 10.2-10.2v0c0-5.6-4.6-10.2-10.2-10.2z" />
<glyph unicode="&#xe972;" glyph-name="Radio2" d="M224.6 447.6h-63c-9.4 0-17 7.6-17 17v0c0 9.4 7.6 17 17 17h63c9.4 0 17-7.6 17-17v0c0-9.4-7.6-17-17-17zM276.6 367.6h-117c-9.4 0-17 7.6-17 17v0c0 9.4 7.6 17 17 17h117c9.4 0 17-7.6 17-17v0c0-9.4-7.6-17-17-17zM343.6 287.6h-180c-9.4 0-17 7.6-17 17v0c0 9.4 7.6 17 17 17h180c9.4 0 17-7.6 17-17v0c0-9.4-7.6-17-17-17z" />
<glyph unicode="&#xe973;" glyph-name="coupon" d="M1002.688 725.324h-704.002l-42.686-42.666-42.656 42.666h-192c-11.786 0-21.344-9.55-21.344-21.334v-511.998c0-11.786 9.558-21.316 21.344-21.316h192l42.656 42.628 42.686-42.628h704.002c11.784 0 21.312 9.532 21.312 21.316v511.998c0 11.784-9.53 21.334-21.312 21.334zM981.354 213.304h-665.010l-60.344 60.372-60.314-60.372h-153v469.354h153l60.314-60.334 60.344 60.332h665.010v-469.352zM554.686 618.658c-47.126 0-85.342-38.216-85.342-85.334 0-47.128 38.214-85.334 85.342-85.334 47.12 0 85.314 38.206 85.314 85.334 0 47.118-38.196 85.334-85.314 85.334zM554.686 490.658c-23.53 0-42.686 19.146-42.686 42.666 0 23.528 19.156 42.666 42.686 42.666s42.668-19.138 42.668-42.666c0-23.52-19.138-42.666-42.668-42.666zM725.354 447.99c-47.138 0-85.354-38.198-85.354-85.314s38.214-85.372 85.354-85.372c47.118 0 85.334 38.254 85.334 85.372s-38.218 85.314-85.334 85.314zM725.354 319.992c-23.548 0-42.666 19.118-42.666 42.684 0 23.512 19.118 42.628 42.666 42.628 23.53 0 42.646-19.118 42.646-42.628 0-23.566-19.118-42.684-42.646-42.684zM789.354 618.656c-5.882 0-11.236-2.382-15.1-6.246l-298.656-298.676c-3.852-3.864-6.254-9.176-6.254-15.058 0-11.804 9.558-21.372 21.342-21.372 5.874 0 11.216 2.41 15.098 6.254l298.648 298.686c3.882 3.854 6.256 9.186 6.256 15.078 0 11.776-9.57 21.334-21.334 21.334zM256 597.324c-11.746 0-21.314-9.548-21.314-21.334s9.57-21.334 21.314-21.334c11.814 0 21.344 9.548 21.344 21.334s-9.53 21.334-21.344 21.334zM256 511.99c-11.746 0-21.314-9.548-21.314-21.334 0-11.776 9.57-21.334 21.314-21.334 11.814 0 21.344 9.558 21.344 21.334 0 11.786-9.53 21.334-21.344 21.334zM256 426.656c-11.746 0-21.314-9.546-21.314-21.352 0-11.746 9.57-21.312 21.314-21.312 11.814 0 21.344 9.566 21.344 21.312 0 11.806-9.53 21.352-21.344 21.352zM256 341.304c-11.746 0-21.314-9.532-21.314-21.312 0-11.786 9.57-21.316 21.314-21.316 11.814 0 21.344 9.532 21.344 21.316 0 11.782-9.53 21.312-21.344 21.312z" />
<glyph unicode="&#xe974;" glyph-name="user_jax" horiz-adv-x="480" d="M235.904 164.352c-73.728 0-133.12 59.392-133.12 133.12s59.392 133.12 133.12 133.12c73.728 0 133.12-59.392 133.12-133.12s-59.392-133.12-133.12-133.12zM235.904 389.632c-51.2 0-92.16-40.96-92.16-92.16s40.96-92.16 92.16-92.16 92.16 40.96 92.16 92.16-40.96 92.16-92.16 92.16zM432.512-46.592h-388.096c-20.48 0-29.696 22.528-29.696 37.888v67.584c0 80.896 99.328 143.36 225.28 143.36s225.28-62.464 225.28-143.36v-67.584c0-12.288-11.264-37.888-32.768-37.888zM55.68-5.632h368.64v64.512c0 55.296-83.968 102.4-184.32 102.4s-184.32-47.104-184.32-102.4v-64.512z" />
<glyph unicode="&#xe975;" glyph-name="placeholder" d="M515.338 735.59c-72.166 0-130.906-58.739-130.906-130.906s58.739-130.906 130.906-130.906 130.906 58.739 130.906 130.906-58.739 130.906-130.906 130.906zM515.338 511.181c-51.558 0-93.504 41.946-93.504 93.504s41.946 93.504 93.504 93.504 93.504-41.946 93.504-93.504-41.946-93.504-93.504-93.504zM765.611 854.958c-67.734 67.734-157.797 105.042-253.583 105.042-95.804 0-185.849-37.308-253.583-105.042-125.351-125.333-140.929-361.15-33.736-504.024l287.319-414.933 286.889 414.354c107.623 143.454 92.045 379.271-33.306 504.604zM768.584 372.215l-256.556-370.5-256.968 371.080c-97.225 129.634-83.293 342.599 29.846 455.72 60.665 60.665 141.322 94.084 227.121 94.084s166.456-33.418 227.14-94.084c113.14-113.121 127.072-326.086 29.416-456.3z" />
<glyph unicode="&#xe976;" glyph-name="classic-phone" d="M619.876 620.86c-33.809 14.388-69.455 21.581-107.196 21.581h-1.009c-109.212 0-201.225-58.837-266.235-170.068-27.088-46.381-47.305-96.094-59.889-148.917-12.584-52.932-19.121-101.246-19.121-144.941 0-96.203 30.697-153.537 81.534-153.537h529.442c50.323 0 81.276 57.334 81.524 152.461 0.258 93.624-26.927 209.254-85.054 302.020-38.996 62.273-86.142 112.52-153.995 141.401zM802.054 177.439c-0.313-63.883-16.6-99.634-24.651-96.631h-529.444c-9.062-2.468-26.176 31.781-26.176 97.707 0 39.186 5.861 82.994 17.619 130.771 11.896 48.421 30.503 93.514 54.854 135.386 20.937 36.076 45.039 65.708 80.523 94.698 35.979 29.311 84.045 47.241 136.892 47.241h1.009c52.836 0 101.053-18.253 136.882-47.778 36.14-29.848 60.093-59.267 81.534-95.664 24.866-42.084 42.72-87.504 54.357-135.817 11.512-47.885 16.794-91.155 16.602-129.913zM512.68 461.852c-46.306 0-85.559-16.105-118.274-48.853-32.715-32.745-48.819-71.934-48.819-117.779 0-45.739 16.105-85.573 48.819-118.209 32.715-32.748 71.968-48.853 118.274-48.853 45.794 0 85.046 16.105 117.76 48.853 32.715 32.638 49.324 72.47 49.324 118.209 0 45.842-16.61 84.604-49.324 117.241-32.716 32.748-71.968 49.39-117.76 49.39zM591.187 216.197c-21.516-21.686-47.81-32.638-78.507-32.638-30.707 0-57.505 10.951-79.020 32.638-21.763 22.009-32.209 48.314-32.209 79.024 0 30.707 10.575 56.902 32.209 78.483 21.645 21.686 48.314 32.745 79.020 32.745 30.697 0 56.862-11.058 78.507-32.745 21.645-21.581 32.715-47.778 32.715-78.483 0-30.71-10.951-57.013-32.715-79.024zM977.199 736.6c-30.707 31.674-71.098 57.011-121.796 76.015-101.289 37.9-224.962 58.407-355.305 58.407-101.666 0-192.271-11.058-271.764-32.746-79.044-21.581-137.783-52.502-176.65-91.583-34.615-34.893-51.245-73.546-50.333-116.813 0.085-3.972-0.902-14.602-0.999-18.574-0.408-16.642-0.525-29.74 0-39.725 0.484-9.663 2.511-21.688 7.043-36.288 4.531-14.602 11.734-25.983 20.636-35.216 18.285-19.004 45.791-28.667 82.533-28.667 10.565 0 18.65 0.214 24.661 0.965 74.018 9.77 108.847 29.632 122.795 61.95 10.212 23.514 11.574 40.262 11.574 70.969v11.488c0 4.079 2.020 8.053 6.045 12.132 14.592 14.602 43.838 25.874 87.567 35.216 43.838 9.342 93.107 14.065 147.456 14.065 47.812 0 91.089-3.544 129.849-9.986 38.748-6.549 67.845-14.816 87.062-24.158 19.026-9.342 29.192-18.144 29.192-27.272v-8.481c0-31.781-0.129-48.853 10.061-73.009 4.918-11.595 12.069-21.688 21.646-29.204 18.606-14.602 52.835-28.237 102.663-33.713 46.801-5.153 82.176 3.865 104.681 26.734 18.263 18.467 27.014 52.288 27.678 72.902 0.343 10.63 0.505 23.621 0.505 40.262v16.642c0.002 40.262-16.103 76.015-46.8 107.687zM968.137 611.304c0-38.76-2.406-63.025-12.079-73.009-7.441-7.623-21.646-11.595-41.271-11.595-7.548 0-13.571 0.644-17.607 1.074-41.765 4.079-68.21 12.884-78.517 27.163-5.304 7.3-6.034 24.586-6.034 52.288v9.556c0 30.707-21.258 56.153-50.827 72.472-28.806 15.89-74.523 28.023-111.231 33.712-18.146 2.9-37.761 5.368-58.376 7.086-20.657 1.825-37.246 3.005-48.819 3.542s-22.138 0.537-32.715 0.537c-18.618 0-37.729-0.751-57.378-2.040-19.605-1.288-44.266-3.651-74.479-7.516-59.867-7.73-115.483-27.486-143.431-56.367-15.837-16.426-21.645-33.712-21.645-51.428v-11.488c0-20.721-0.119-26.197-3.522-39.832-1.631-6.442-3.586-11.488-7.043-14.602-10.63-9.447-31.769-19.326-73.986-23.084-31.769-2.791-51.782 0-60.888 10.521-7.001 8.16-10.404 21.688-11.584 35.753-0.333 4.079-0.494 14.065-0.494 17.607v18.574c0 4.079 1.128 15.676 0.999 19.648-0.88 28.237 10.071 53.897 33.723 77.518 33.712 33.712 87.127 59.695 160.039 79.022 73.030 19.433 156.013 29.204 249.12 29.204 131.352 0 240.995-17.823 329.141-52.825 34.647-13.849 63.819-28.344 92.098-50.355 28.592-22.224 46.801-51.858 46.801-83.53v-17.607z" />
<glyph unicode="&#xe977;" glyph-name="menu-button" d="M0 106.667h1024v113.778h-1024v-113.778zM0 391.111h1024v113.778h-1024v-113.778zM0 789.333v-113.778h1024v113.778h-1024z" />
<glyph unicode="&#xe978;" glyph-name="menu" d="M38.642 699.17h946.717c21.33 0 38.642 17.311 38.642 38.642s-17.311 38.642-38.642 38.642h-946.717c-21.33 0-38.642-17.311-38.642-38.642s17.311-38.642 38.642-38.642zM38.642 409.358h946.717c21.33 0 38.642 17.311 38.642 38.642s-17.311 38.642-38.642 38.642h-946.717c-21.33 0-38.642-17.311-38.642-38.642s17.311-38.642 38.642-38.642zM38.642 119.547h946.717c21.33 0 38.642 17.311 38.642 38.642s-17.311 38.642-38.642 38.642h-946.717c-21.33 0-38.642-17.311-38.642-38.642s17.311-38.642 38.642-38.642z" />
</font>
</defs>
</svg>
